<?xml version="1.0" standalone="no"?><!DOCTYPE svg PUBLIC "-//W3C//DTD SVG 1.1//EN" "http://www.w3.org/Graphics/SVG/1.1/DTD/svg11.dtd" ><svg xmlns="http://www.w3.org/2000/svg"><metadata></metadata><defs><font id="fonteditor" horiz-adv-x="1020"><font-face font-family="[W_ÃWJl_SWOS~ÆOS" font-weight="400" font-stretch="normal" units-per-em="1000" panose-1="0 2 6 0 4 1 1 1 1 1" ascent="1043" descent="-266" x-height="1" bbox="-42 -193 965 845" underline-thickness="50" underline-position="-282" unicode-range="U+0021-ff1f" /><missing-glyph horiz-adv-x="1000"  /><glyph glyph-name="exclam" unicode="!" d="M171 90 Q190 90 203 77 Q215 64 215 45 Q215 27 203 14 Q190 1 171 1 Q153 1 140 14 Q127 27 127 45 Q127 64 140 77 Q153 90 171 90 ZM195 213 Q195 203 188 196 Q181 189 171 189 Q161 189 155 196 Q148 203 148 213 L148 668 Q148 678 155 685 Q161 691 171 691 Q181 691 188 685 Q195 678 195 668 L195 213 Z" /><glyph glyph-name="numbersign" unicode="#" d="M374 61 Q372 51 364 46 Q356 41 347 43 Q337 45 332 53 Q327 60 329 70 L355 202 Q358 217 349.5 227 Q341 237 327 237 L259 237 Q249 237 240.5 230 Q232 223 230 214 L200 61 Q198 51 191 46 Q183 41 173 43 Q164 45 159 53 Q153 60 155 70 L181 202 Q184 217 175.5 227 Q167 237 153 237 L71 237 Q61 237 55 244 Q48 251 48 261 Q48 270 55 277 Q61 284 71 284 L173 284 Q183 284 191.5 291 Q200 298 202 307 L217 386 Q220 401 211.5 411 Q203 421 189 421 L92 421 Q82 421 75 428 Q68 435 68 445 Q68 454 75 461 Q82 468 92 468 L209 468 Q219 468 227.5 475 Q236 482 238 491 L264 622 Q266 631 274 637 Q281 642 291 640 Q300 638 306 631 Q311 623 309 613 L287 503 Q284 489 292.5 478.5 Q301 468 315 468 L383 468 Q393 468 401.5 475 Q410 482 412 491 L437 622 Q439 631 447 637 Q455 642 464 640 Q474 638 480 631 Q485 623 483 613 L461 503 Q458 489 466.5 478.5 Q475 468 489 468 L568 468 Q577 468 584 461 Q591 454 591 445 Q591 435 584 428 Q577 421 568 421 L469 421 Q459 421 450.5 414 Q442 407 440 398 L425 319 Q422 304 430.5 294 Q439 284 453 284 L547 284 Q557 284 564 277 Q570 270 570 261 Q570 251 564 244 Q557 237 547 237 L433 237 Q423 237 414.5 230 Q406 223 404 214 L374 61 ZM279 284 L347 284 Q357 284 365.5 291 Q374 298 376 307 L391 386 Q394 401 385.5 411 Q377 421 363 421 L295 421 Q285 421 276.5 414 Q268 407 266 398 L251 319 Q248 304 256.5 294 Q265 284 279 284 Z" /><glyph glyph-name="dollar" unicode="$" d="M310 -55 Q310 -65 304 -72 Q297 -78 287 -78 Q277 -78 271 -72 Q264 -65 264 -55 L264 -11 Q264 -1 256 7.5 Q248 16 239 17 Q200 22 163 36 Q112 53 74 81 Q66 86 65 96 Q64 105 69 113 Q75 121 85 122 Q94 123 102 118 Q134 94 177 79 Q208 68 241 63 Q251 62 257.5 68 Q264 74 264 84 L264 317 Q264 321 260 323 L256 324 L248 327 Q213 339 181 354 Q149 369 124 389 Q97 411 81 439 Q65 466 67 501 Q68 530 75 553 Q82 576 94 595 Q119 632 164 649 Q184 657 207 661 Q229 664 252 664 L259 664 Q264 663 264 668 L264 730 Q264 740 271 747 Q277 753 287 753 Q297 753 304 747 Q310 740 310 730 L310 676 Q310 669 315.5 662 Q321 655 328 653 Q357 646 385 635 Q422 620 453 599 Q461 594 463 585 Q464 575 459 567 Q454 559 445 557 Q435 555 427 560 Q401 577 372 590 Q349 600 326 606 Q319 608 314.5 604.5 Q310 601 310 594 L310 368 Q310 362 314 356 Q318 350 323 348 Q344 339 364 330 Q389 318 411 303 Q444 280 465 250 Q485 220 484 179 Q483 123 453 84 Q439 64 419 51 Q399 37 376 29 Q361 23 344 20 L327 18 Q320 16 315 10.5 Q310 5 310 -2 L310 -55 ZM264 387 L264 612 Q264 617 259 617 L253 617 Q233 618 215 616 Q197 613 181 606 Q151 595 132 569 Q124 556 119 539 Q113 522 113 500 Q112 477 123 459 Q134 440 153 425 Q174 408 203 395 Q224 384 248 375 Q255 373 259.5 376.5 Q264 380 264 387 ZM323 63 L337 65 Q348 67 358 71 L362 73 Q398 86 416 111 Q426 125 432 142 Q437 158 438 180 Q438 207 424 228 Q409 248 384 265 Q368 276 350 286 L330 295 Q322 298 316 294 Q310 290 310 282 L310 74 Q310 61 323 63 Z" /><glyph glyph-name="ampersand" unicode="&amp;" d="M687 55 Q697 53 702 45 Q706 36 704 27 Q702 18 694 13 Q685 8 676 10 Q616 25 563 52 Q518 74 477 103 Q471 107 463 106 Q455 105 451 99 Q436 81 421 66 Q394 39 370 23 Q345 6 323 -3 Q301 -12 283 -16 Q264 -19 248 -19 Q208 -20 172 -9 Q136 2 107 25 Q78 48 61 83 Q43 118 41 166 Q40 207 49 240 Q58 273 81 304 Q100 330 128 354 Q153 374 189 397 Q198 402 192 412 L185 421 L173 439 Q138 492 132 534 Q125 575 133 604 Q141 635 156 653 L176 674 L179 676 Q207 701 249 706 Q286 711 318 699 Q355 686 378 660 Q392 644 402 624 Q412 604 414 578 Q419 545 406 517 Q392 488 367 462 Q346 442 320 424 Q299 409 278 396 Q272 393 271 386.5 Q270 380 274 374 Q299 341 327 307 Q360 265 400 226 L426 202 L440 191 Q445 186 452.5 187.5 Q460 189 464 195 Q493 243 524 308 Q560 385 596 494 Q599 503 608 508 Q616 512 625 509 Q634 506 639 498 Q643 489 640 480 Q602 366 564 286 Q534 222 504 173 Q498 164 500 152.5 Q502 141 511 134 Q545 112 582 94 Q631 69 687 55 ZM415 150 Q389 171 368 193 Q326 235 290 279 Q263 311 239 343 Q233 352 222.5 354.5 Q212 357 203 351 Q146 314 118 277 Q100 253 93 227 Q86 200 87 167 Q89 131 102 105 Q114 78 136 61 Q158 44 187 35 Q215 26 247 27 Q271 28 307 41 Q343 54 388 99 L407 119 L417 130 Q426 141 415 150 ZM212 464 L225 446 L231 436 Q238 426 248 432 Q270 445 290 459 Q315 476 334 495 Q351 513 361 533 Q371 552 369 572 Q365 607 344 629 Q327 647 303 655 Q291 660 279 661 L257 661 Q257 661 255 661 Q253 661 253 661 Q240 659 229 654 Q218 649 210 642 L207 640 L193 625 Q183 613 178 592 Q173 571 178 540 Q183 508 212 464 Z" /><glyph glyph-name="quotesingle" unicode="&#39;" d="M120 543 Q120 533 114 527 Q107 520 97 520 Q88 520 81 527 Q74 533 74 543 L74 700 Q74 710 81 717 Q88 723 97 723 Q107 723 114 717 Q120 710 120 700 L120 543 Z" /><glyph glyph-name="parenleft" unicode="(" d="M215 746 Q220 754 230 756 Q239 757 247 752 Q255 746 257 737 Q258 727 251 718 Q106 516 106 316 Q106 116 251 -87 Q258 -96 257 -106 Q255 -115 247 -120 Q239 -126 230 -125 Q220 -123 214 -114 Q60 101 60 316 Q60 530 214 745 L215 746 Z" /><glyph glyph-name="parenright" unicode=")" d="M77 743 Q230 530 230 316 Q230 101 76 -114 Q70 -123 61 -125 Q51 -126 43 -120 Q35 -115 34 -106 Q32 -96 39 -87 Q184 116 184 316 Q184 516 39 718 Q32 727 34 737 Q35 746 43 752 Q51 757 61 756 Q70 754 76 745 L77 743 Z" /><glyph glyph-name="asterisk" unicode="*" d="M275 576 L357 603 Q367 606 376 602 Q383 598 386 590 Q387 588 387 586 Q389 578 385 571 Q381 562 372 559 L289 532 Q274 527 269.5 513.5 Q265 500 275 488 L326 417 Q331 409 330 400 Q328 390 320 385 Q312 379 303 381 Q294 382 288 390 L237 460 Q228 473 214 473 Q200 473 190 460 L139 390 Q133 382 124 381 Q115 379 107 385 Q99 390 98 400 Q96 409 101 417 L152 488 Q162 500 157.5 513.5 Q153 527 138 532 L55 559 Q46 562 42 571 Q39 578 40 586 L42 590 Q44 598 52 602 Q61 606 70 603 L152 576 Q167 571 178.5 579.5 Q190 588 190 604 L190 691 Q190 700 197 707 Q204 714 214 714 Q223 714 230 707 Q237 700 237 691 L237 604 Q237 588 248.5 579.5 Q260 571 275 576 Z" /><glyph glyph-name="plus" unicode="+" d="M270 161 Q270 151 263 145 Q256 138 246 138 Q237 138 230 145 Q223 151 223 161 L223 310 Q223 322 214.5 330.5 Q206 339 194 339 L45 339 Q36 339 29 346 Q22 352 22 362 Q22 372 29 379 Q36 385 45 385 L194 385 Q206 385 214.5 393.5 Q223 402 223 414 L223 563 Q223 573 230 580 Q237 586 246 586 Q256 586 263 580 Q270 573 270 563 L270 414 Q270 402 278.5 393.5 Q287 385 299 385 L448 385 Q457 385 464 379 Q471 372 471 362 Q471 352 464 346 Q457 339 448 339 L299 339 Q287 339 278.5 330.5 Q270 322 270 310 L270 161 Z" /><glyph glyph-name="comma" unicode="," d="M85 -117 Q82 -126 74 -131 Q65 -135 56 -132 Q47 -129 43 -121 Q39 -114 40 -105 Q40 -105 40 -103.5 Q40 -102 40 -102 L90 63 Q93 72 102 77 Q109 80 117 79 Q119 79 121 78 Q129 75 133 68 Q137 59 135 50 L85 -117 Z" /><glyph glyph-name="hyphen" unicode="-" d="M38 339 Q29 339 22 346 Q15 352 15 362 Q15 372 22 379 Q29 385 38 385 L291 385 Q300 385 307 379 Q314 372 314 362 Q314 352 307 346 Q300 339 291 339 L38 339 Z" /><glyph glyph-name="period" unicode="." d="M106 82 Q124 82 137 69 Q149 56 149 38 Q149 20 137 8 Q124 -5 106 -5 Q88 -5 75 8 Q62 20 62 38 Q62 56 75 69 Q88 82 106 82 Z" /><glyph glyph-name="slash" unicode="/" d="M95 -89 Q92 -98 84 -103 Q77 -106 68 -105 Q66 -105 64 -104 Q56 -101 53 -94 Q48 -86 50 -76 L274 738 Q276 747 285 752 Q292 755 300 754 Q302 754 304 753 Q312 750 316 743 Q320 735 318 725 L95 -89 Z" /><glyph glyph-name="zero" unicode="0" d="M224 687 Q272 687 314 662 Q356 637 385 587 Q411 544 426 483 Q441 422 441 343 Q441 263 426 202 Q411 141 385 98 Q356 48 314 23 Q272 -2 224 -2 Q176 -2 135 23 Q93 48 63 98 Q37 141 23 202 Q8 263 8 343 Q8 422 23 483 Q37 544 63 587 Q93 637 135 662 Q176 687 224 687 ZM346 563 Q323 602 292 621 Q260 640 224 640 Q189 640 158 621 Q126 602 103 563 Q80 525 67 471 Q54 416 54 343 Q54 269 67 215 Q80 160 103 122 Q126 84 158 65 Q189 45 224 45 Q260 45 292 65 Q323 84 346 122 Q369 160 382 215 Q394 269 394 343 Q394 416 382 471 Q369 525 346 563 Z" /><glyph glyph-name="one" unicode="1" d="M202 86 L202 581 Q202 597 190.5 605 Q179 613 164 609 L95 586 Q86 583 78 588 Q69 592 66 601 Q63 610 68 619 Q72 627 81 630 L215 674 L217 674 L222 675 Q225 676 227 676 Q236 675 242 670 Q248 663 248 653 L248 86 Q248 74 256.5 65.5 Q265 57 277 57 L383 57 Q393 57 400 51 Q406 44 406 34 Q406 24 400 18 Q393 11 383 11 L67 11 Q57 11 51 18 Q44 24 44 34 Q44 44 51 51 Q57 57 67 57 L173 57 Q185 57 193.5 65.5 Q202 74 202 86 Z" /><glyph glyph-name="two" unicode="2" d="M56 570 Q48 565 39 567 Q30 568 24 576 Q19 584 21 594 Q22 603 30 608 Q75 640 131 660 Q186 680 240 682 Q286 684 321 669 Q361 654 386 620 Q400 601 408 576 Q415 550 416 518 Q417 483 403 452 Q389 421 364 393 Q340 367 308 343 Q276 319 238 296 Q181 261 147 227 Q112 193 93 159 Q77 132 71 105 Q66 85 63 65 Q62 51 76 51 L412 51 Q421 51 428 45 Q435 38 435 28 Q435 19 428 12 Q421 5 412 5 L39 5 Q30 5 23 12 Q16 18 16 28 Q15 66 23 105 Q30 143 53 182 Q75 220 114 259 Q152 297 214 335 Q249 357 279 379 Q309 401 330 424 Q349 446 360 469 Q370 491 370 517 Q369 565 348 593 Q340 605 329 613 Q318 621 305 626 Q278 636 241 636 Q195 635 146 617 Q96 599 56 570 Z" /><glyph glyph-name="three" unicode="3" d="M54 574 Q46 568 37 570 Q27 571 22 579 Q17 587 19 597 Q20 606 28 611 Q68 640 117 659 Q166 677 216 681 Q267 686 314 670 Q337 662 357 648 Q377 634 392 613 Q420 575 424 517 L425 504 Q425 472 414 442 Q402 412 380 387 Q365 371 347 359 Q343 356 342 351 Q341 346 345 343 Q369 328 387 308 Q410 282 422 251 Q433 219 433 187 L433 171 Q426 112 398 73 Q369 32 319 15 Q296 7 271 5 Q246 2 220 4 Q169 8 119 28 Q69 47 27 77 Q19 82 18 92 Q17 101 22 109 Q28 117 37 118 Q46 119 54 114 Q91 88 135 71 Q179 54 224 50 Q268 47 304 59 Q341 72 361 100 Q383 129 387 178 L387 187 Q387 211 379 235 Q370 258 353 277 Q336 297 311 310 Q286 322 254 325 L236 325 L86 326 Q76 326 69 333 Q62 339 62 349 Q62 358 69 365 Q76 372 86 372 L249 372 Q280 375 304 387 Q328 399 345 418 Q378 454 379 502 L379 506 L378 513 Q375 557 354 586 Q334 615 299 626 Q281 633 261 635 Q241 637 219 635 Q176 631 133 615 Q89 599 54 574 Z" /><glyph glyph-name="four" unicode="4" d="M356 25 Q356 15 349 9 Q342 2 332 2 Q323 2 316 9 Q309 15 309 25 L309 163 Q309 175 300.5 183.5 Q292 192 280 192 L25 193 L21 193 Q16 193 8 197 Q0 202 -2 212 Q-3 221 2 229 L303 674 Q310 686 323 686 L332 686 Q342 686 349 679 Q356 672 356 662 L356 268 Q356 256 364.5 247.5 Q373 239 385 239 L430 238 Q440 238 447 232 Q453 225 453 215 Q453 206 447 199 Q440 192 430 192 L385 192 Q373 192 364.5 183.5 Q356 175 356 163 L356 25 ZM309 268 L309 506 Q309 517 303 524.5 Q297 532 288.5 534.5 Q280 537 271 534 Q262 531 256 522 L95 284 Q85 269 93 254 Q101 239 120 239 L280 239 Q292 239 300.5 247.5 Q309 256 309 268 Z" /><glyph glyph-name="five" unicode="5" d="M23 88 Q16 95 16 104 Q16 113 23 120 Q30 128 39 128 Q48 128 55 121 Q81 96 119 79 Q156 62 198 56 Q242 50 282 59 Q301 64 318 72 Q334 80 347 94 Q360 108 369 127 Q378 145 382 171 L385 207 Q385 224 383 240 Q375 291 341 321 Q305 353 238 363 Q171 372 77 359 Q68 357 61 363 Q54 368 52 377 Q51 379 51 382 L51 387 L82 668 Q83 677 90 683 Q96 688 104 688 L408 688 Q418 688 425 682 Q431 675 431 665 Q431 656 425 649 Q418 642 408 642 L151 642 Q140 642 131.5 634.5 Q123 627 122 616 L102 430 Q101 422 107 416.5 Q113 411 122 411 Q152 414 178 414 Q214 413 245 409 Q325 397 371 356 Q419 314 428 247 Q434 207 427 164 Q422 132 410 107 Q398 81 380 62 Q363 44 341 32 Q318 20 293 14 Q269 8 243 8 Q217 7 191 11 Q143 18 99 39 Q54 59 23 88 Z" /><glyph glyph-name="six" unicode="6" d="M433 602 Q439 594 438 585 Q437 576 429 570 Q421 564 412 565 Q402 566 396 574 Q381 594 353 609 Q324 624 289 632 Q245 640 203 634 Q182 630 163 623 Q143 615 126 601 Q104 584 89 558 Q73 532 65 494 Q61 477 59 454 L55 401 L55 388 L54 381 Q54 379 56 378 Q58 377 60 378 Q95 402 130 412 Q191 431 266 418 Q333 406 373 369 Q412 332 428 283 Q442 236 436 189 Q431 141 407 100 Q381 55 335 26 Q289 -3 225 0 Q162 3 121 21 Q80 39 54 72 Q29 104 19 149 Q9 194 8 251 L7 288 L7 324 L8 365 L9 403 L13 460 Q15 485 19 504 Q29 550 50 583 Q70 616 98 638 Q140 669 195 679 Q221 684 247 683 Q273 682 298 677 Q341 668 377 648 Q412 628 433 602 ZM53 300 L53 284 L54 252 Q55 201 63 164 Q71 126 91 100 Q110 76 143 62 Q176 48 227 46 Q276 44 312 66 Q347 88 367 123 Q386 156 391 194 Q394 234 384 269 Q372 306 342 335 Q311 363 258 373 Q226 378 198 377 Q170 376 144 368 Q101 355 62 321 Q58 318 55.5 311.5 Q53 305 53 300 Z" /><glyph glyph-name="seven" unicode="7" d="M213 17 Q210 8 202 4 Q194 0 186 1 Q184 2 182 3 Q174 7 171 15 Q166 23 169 32 L370 605 Q376 621 367.5 632.5 Q359 644 343 644 L31 644 Q22 644 15 651 Q8 658 8 667 Q8 677 15 684 Q22 690 31 690 L417 690 L420 689 Q425 689 428 687 Q434 683 438 677 Q442 668 438 659 L213 17 Z" /><glyph glyph-name="eight" unicode="8" d="M354 363 Q377 351 395 337 Q426 313 444 278 Q461 242 461 196 Q461 150 444 115 Q426 80 395 55 Q363 29 320 16 Q276 3 226 3 Q175 3 132 16 Q88 29 56 55 Q25 80 8 115 Q-10 150 -10 196 Q-10 242 8 278 Q25 313 56 337 Q74 352 96 362 Q99 364 99.5 367.5 Q100 371 97 372 L88 377 L86 378 L70 389 Q41 412 25 444 Q9 475 9 517 Q9 559 25 591 Q41 622 70 644 Q100 667 140 679 Q180 690 226 690 Q271 690 312 679 Q352 667 381 644 Q410 622 426 591 Q442 559 442 517 Q442 475 426 444 Q410 412 381 389 L365 378 L363 377 L355 372 Q351 371 351 367.5 Q351 364 354 363 ZM353 608 Q330 626 297 635 Q264 644 226 644 Q188 644 155 635 Q122 626 98 608 Q78 592 67 569 Q55 546 55 517 Q55 487 67 464 Q78 441 98 425 Q122 407 155 398 Q188 389 226 389 Q264 389 297 398 Q330 407 353 425 Q373 441 385 464 Q396 487 396 517 Q396 546 385 569 Q373 592 353 608 ZM366 301 Q340 322 304 333 Q268 343 226 343 Q184 343 148 333 Q111 322 85 301 Q62 283 50 257 Q37 231 37 196 Q37 161 50 135 Q62 109 85 91 Q111 70 148 60 Q184 49 226 49 Q268 49 304 60 Q340 70 366 91 Q389 109 402 135 Q414 161 414 196 Q414 231 402 257 Q389 283 366 301 Z" /><glyph glyph-name="nine" unicode="9" d="M15 81 Q11 88 12 97 Q12 106 20 112 Q28 117 38 116 Q47 115 53 107 Q69 87 97 72 Q125 57 160 50 Q204 41 246 48 Q267 52 287 60 Q306 67 323 80 Q345 97 361 123 Q377 149 385 187 Q388 204 390 228 L394 280 L395 294 L395 301 Q395 308 389 304 Q356 280 319 269 Q258 250 183 263 Q116 275 77 313 Q37 350 21 399 Q7 446 13 492 Q18 540 42 581 Q68 627 114 656 Q160 684 224 681 Q287 678 328 660 Q369 642 395 609 Q420 577 430 533 Q440 488 441 430 L442 394 L442 316 L440 278 L436 222 Q434 197 430 178 Q420 131 400 99 Q380 66 351 44 Q330 27 305 17 Q280 7 254 2 Q202 -6 151 5 Q108 13 73 33 Q38 52 17 77 Q16 79 15 81 ZM396 381 L396 398 L395 429 Q394 480 387 518 Q379 555 359 581 Q339 606 307 620 Q274 633 222 635 Q173 637 138 615 Q102 593 82 558 Q72 542 67 524 Q61 506 59 487 Q54 448 65 413 Q77 375 108 347 Q139 318 191 309 Q223 303 252 304 Q280 305 306 313 Q348 327 387 360 Q391 363 393.5 369.5 Q396 376 396 381 Z" /><glyph glyph-name="colon" unicode=":" d="M111 88 Q128 88 141 76 Q154 63 154 45 Q154 27 141 15 Q128 2 111 2 Q93 2 80 15 Q67 27 67 45 Q67 63 80 76 Q93 88 111 88 ZM108 481 Q126 481 139 469 Q151 456 151 438 Q151 420 139 407 Q126 394 108 394 Q90 394 78 407 Q65 420 65 438 Q65 456 78 469 Q90 481 108 481 Z" /><glyph glyph-name="semicolon" unicode=";" d="M93 -59 Q90 -69 82 -74 Q73 -78 64 -75 Q54 -72 50 -64 Q45 -55 48 -46 L90 88 Q93 97 102 102 Q110 106 119 104 Q129 101 134 93 Q138 84 135 74 L93 -59 ZM106 490 Q125 490 138 477 Q150 464 150 446 Q150 428 138 415 Q125 402 106 402 Q88 402 75 415 Q62 428 62 446 Q62 464 75 477 Q88 490 106 490 Z" /><glyph glyph-name="equal" unicode="=" d="M129 419 Q119 419 112 426 Q105 432 105 442 Q105 453 112 460 Q119 466 129 466 L474 466 Q484 466 491 460 Q498 453 498 442 Q498 432 491 426 Q484 419 474 419 L129 419 ZM129 212 Q119 212 112 219 Q105 226 105 236 Q105 246 112 253 Q119 259 129 259 L474 259 Q484 259 491 253 Q498 246 498 236 Q498 226 491 219 Q484 212 474 212 L129 212 Z" /><glyph glyph-name="at" unicode="@" d="M500 -1 Q510 0 517 -7 Q524 -13 525 -23 Q526 -32 520 -39 Q514 -46 504 -47 Q412 -55 345 -47 Q277 -39 229 -20 Q180 0 149 30 Q118 60 101 98 Q84 135 79 177 Q74 219 77 264 Q79 309 87 356 Q95 402 104 447 Q118 513 153 554 Q187 595 232 619 Q264 636 300 645 Q335 654 369 657 Q402 659 432 658 Q462 656 483 652 Q540 641 579 615 Q617 589 643 556 Q664 530 677 501 Q689 472 696 446 Q702 420 704 399 Q706 377 705 365 Q693 252 648 190 Q600 126 519 114 L488 110 L458 107 Q408 102 371 105 Q334 108 307 119 Q269 136 251 168 Q233 200 233 254 L235 299 Q237 329 246 364 Q255 402 275 435 Q294 468 331 484 Q360 495 388 495 Q415 494 440 483 Q454 477 469 467 Q472 464 475.5 465 Q479 466 480 470 L481 481 Q482 490 490 496 Q497 502 507 500 Q516 499 522 492 Q527 485 526 477 L526 474 L515 394 L484 163 Q483 156 490 157 L498 158 L513 160 Q575 169 611 217 Q649 270 659 369 L659 397 Q657 414 652 436 Q646 458 635 482 Q624 505 607 528 Q586 555 554 577 Q522 598 475 606 Q456 610 430 612 Q403 613 374 611 Q344 608 313 601 Q281 593 253 578 Q217 559 189 525 Q161 491 150 437 Q141 395 134 352 Q126 308 123 267 Q120 226 124 188 Q128 149 143 117 Q157 86 184 61 Q211 36 254 20 Q296 4 357 -2 Q418 -8 500 -1 ZM465 402 Q450 428 422 441 Q405 448 387 449 Q368 449 349 441 Q325 431 312 407 Q298 382 290 353 Q282 322 281 294 L280 254 Q280 181 325 161 Q356 149 412 150 Q422 150 430 157.5 Q438 165 439 175 L468 386 Q468 388 467 394 Q466 400 465 402 Z" /><glyph glyph-name="A" unicode="a" d="M95 20 Q93 11 85 7 Q76 2 67 4 Q57 7 53 16 Q49 24 51 33 L229 626 Q236 652 259 668 Q283 684 310 684 Q338 684 362 668 Q385 652 392 626 L571 31 Q573 22 569 14 Q565 6 557 3 Q555 2 553 2 Q545 1 538 5 Q529 9 526 18 L467 214 Q465 223 456.5 229 Q448 235 439 235 L182 235 Q173 235 164.5 229 Q156 223 154 214 L95 20 ZM436 318 L348 612 Q345 623 335 630 Q325 637 310 637 Q296 637 286 630 Q276 623 273 612 L185 318 Q181 303 189 292 Q197 281 213 281 L408 281 Q424 281 432 292 Q440 303 436 318 Z" /><glyph glyph-name="B" unicode="b" d="M149 331 Q137 331 128.5 322.5 Q120 314 120 302 L120 93 Q120 74 134 60 Q147 47 167 47 L297 47 Q331 47 361 58 Q390 69 411 89 Q433 108 445 134 Q457 160 457 189 Q457 218 445 244 Q433 270 411 290 Q390 309 361 320 Q331 331 297 331 L149 331 ZM397 354 Q408 349 418 343 Q431 334 442 324 Q471 298 487 264 Q503 229 503 189 Q503 149 487 115 Q471 80 442 54 Q414 29 377 15 Q340 1 297 1 L167 1 Q128 1 101 28 Q74 53 74 93 L74 586 Q74 624 101 651 Q128 678 167 678 L286 678 Q327 678 363 665 Q398 652 424 629 Q451 605 467 573 Q482 541 482 505 Q482 468 467 436 Q451 404 424 380 L408 368 L397 361 Q391 357 397 354 ZM120 586 L120 406 Q120 394 128.5 385.5 Q137 377 149 377 L286 378 Q318 378 346 388 Q373 398 393 415 Q413 432 425 456 Q436 479 436 505 Q436 531 425 554 Q413 577 393 594 Q352 632 286 632 L167 632 Q147 632 135 620 L132 616 Q120 605 120 586 Z" /><glyph glyph-name="C" unicode="c" d="M476 669 Q485 666 490 658 Q494 650 493 642 L491 638 Q489 630 482 627 Q473 622 464 624 Q448 629 423 633 Q398 636 367 636 Q333 636 296 629 Q258 622 224 602 Q190 583 163 550 Q135 516 120 462 Q105 411 105 341 Q105 269 120 220 Q135 166 163 133 Q190 99 224 79 Q258 59 296 52 Q333 45 368 45 Q398 45 423 49 Q448 52 464 57 Q473 59 482 55 Q489 51 491 43 L493 39 Q494 31 490 24 Q485 15 476 12 Q458 7 430 3 Q402 -1 368 -1 Q328 -1 285 8 Q242 16 201 39 Q159 62 126 103 Q93 143 75 207 Q67 236 63 269 Q59 302 59 341 Q59 417 76 474 Q94 538 127 579 Q159 619 201 642 Q242 665 285 674 Q328 683 367 683 Q402 683 430 679 Q458 674 476 669 Z" /><glyph glyph-name="D" unicode="d" d="M65 596 Q65 616 73 633 Q80 650 93 663 Q120 690 160 690 L266 690 Q323 690 371 663 Q419 636 454 588 Q489 540 509 478 Q528 416 528 345 Q528 273 509 211 Q489 149 454 102 Q419 54 371 27 Q323 -1 266 -1 L160 -1 Q141 -1 125 5 L122 7 L110 13 Q108 15 105 16 L93 27 Q79 40 72 58 Q65 73 65 93 L65 596 ZM112 596 L112 96 Q112 93 113 90 L114 81 Q115 80 116.5 75.5 Q118 71 119 71 L124 63 Q124 63 126.5 60.5 Q129 58 129 58 L132 55 Q133 54 136 52 L137 51 Q138 51 141.5 49.5 Q145 48 145 48 L158 46 Q158 46 160 46 Q162 46 162 46 L266 46 Q311 46 349 69 Q387 91 416 130 Q447 171 464 226 Q481 281 481 345 Q481 408 464 463 Q447 518 416 560 Q387 598 349 621 Q311 643 266 643 L160 643 Q140 643 126 629 Q112 617 112 596 Z" /><glyph glyph-name="E" unicode="e" d="M447 47 Q456 47 463 40 Q470 33 470 24 Q470 14 463 8 Q456 1 447 1 L162 1 Q123 1 96 28 Q69 53 69 93 L69 586 Q69 624 96 651 Q123 678 162 678 L447 678 Q456 678 463 672 Q470 665 470 655 Q470 645 463 639 Q456 632 447 632 L162 632 Q142 632 130 620 L120 605 Q119 603 118 601 Q115 594 115 586 L115 392 Q115 380 123.5 371.5 Q132 363 144 363 L403 363 Q413 363 420 356 Q426 349 426 339 Q426 330 420 323 Q413 316 403 316 L144 316 Q132 316 123.5 307.5 Q115 299 115 287 L115 93 Q115 84 118 77 Q119 75 120 73 L127 62 Q129 60 131 58 Q143 47 162 47 L447 47 Z" /><glyph glyph-name="F" unicode="f" d="M120 26 Q120 16 114 10 Q107 3 97 3 Q87 3 81 10 Q74 16 74 26 L74 588 Q74 626 101 653 Q128 680 167 680 L463 680 Q473 680 480 674 Q486 667 486 657 Q486 647 480 641 Q473 634 463 634 L167 634 Q147 634 135 622 L125 607 Q124 605 123 603 Q120 596 120 588 L120 394 Q120 382 128.5 373.5 Q137 365 149 365 L431 365 Q441 365 448 358 Q455 351 455 341 Q455 332 448 325 Q441 318 431 318 L149 318 Q137 318 128.5 309.5 Q120 301 120 289 L120 26 Z" /><glyph glyph-name="G" unicode="g" d="M488 665 Q497 663 502 655 Q506 647 505 639 L503 635 Q501 627 494 623 Q485 618 476 621 Q462 625 440 628 Q417 631 388 631 Q350 631 308 623 Q266 615 228 594 Q190 574 160 538 Q129 501 113 444 Q100 399 100 334 Q100 261 122 209 Q143 157 177 122 Q197 102 220 88 Q242 74 266 65 Q289 56 313 52 Q337 47 359 47 Q388 47 412 54 Q435 61 448 73 Q462 87 470 106 Q477 123 477 145 L477 243 Q477 243 477 245 Q477 247 477 247 L474 261 Q474 263 473 265 Q470 274 464 278 L457 284 Q455 285 450 287 Q445 289 444 289 L438 291 Q435 291 432 291 L301 291 Q291 291 285 298 Q278 305 278 314 Q278 324 285 331 Q291 337 301 337 L435 338 Q451 338 469 330 Q483 325 498 310 Q512 295 517 280 Q524 261 524 245 L524 145 Q524 117 514 90 L512 86 L500 64 Q492 52 481 41 Q461 21 429 11 Q397 1 359 1 Q333 1 306 6 Q278 11 249 22 Q221 33 195 50 Q168 66 144 90 Q104 130 79 190 Q53 250 53 334 Q53 369 57 399 Q61 429 69 456 Q87 524 124 567 Q161 610 206 635 Q251 659 299 668 Q346 677 388 677 Q420 677 446 674 Q471 670 488 665 Z" /><glyph glyph-name="H" unicode="h" d="M521 25 Q521 15 515 9 Q508 2 498 2 Q489 2 482 9 Q475 15 475 25 L475 289 Q475 301 466.5 309.5 Q458 318 446 318 L150 318 Q138 318 129.5 309.5 Q121 301 121 289 L121 25 Q121 15 115 9 Q108 2 98 2 Q88 2 82 9 Q75 15 75 25 L75 657 Q75 666 82 673 Q88 680 98 680 Q108 680 115 673 Q121 666 121 657 L121 393 Q121 381 129.5 372.5 Q138 364 150 364 L446 364 Q458 364 466.5 372.5 Q475 381 475 393 L475 657 Q475 666 482 673 Q489 680 498 680 Q508 680 515 673 Q521 666 521 657 L521 25 Z" /><glyph glyph-name="I" unicode="i" d="M120 25 Q120 14 114 8 Q107 1 97 1 Q87 1 80 8 Q73 14 73 25 L73 649 Q73 659 80 666 Q87 673 97 673 Q107 673 114 666 Q120 659 120 649 L120 25 Z" /><glyph glyph-name="J" unicode="j" d="M59 -1 Q49 -1 42 6 Q35 13 35 23 Q35 33 42 40 Q49 46 59 46 L147 46 Q169 46 188 55 Q207 63 222 77 Q236 92 245 111 Q253 130 253 153 L253 667 Q253 677 260 684 Q266 691 277 691 Q287 691 294 684 Q300 677 300 667 L300 153 Q300 121 288 93 Q276 65 255 44 Q234 23 207 11 Q179 -1 147 -1 L59 -1 Z" /><glyph glyph-name="K" unicode="k" d="M121 23 Q121 13 114 7 Q107 0 97 0 Q88 0 81 7 Q74 13 74 23 L74 655 Q74 664 81 671 Q88 678 97 678 Q107 678 114 671 Q121 664 121 655 L121 436 Q121 426 126.5 418.5 Q132 411 139.5 408 Q147 405 155.5 407 Q164 409 171 417 L396 664 L399 667 Q404 673 413 673 Q422 673 429 667 Q437 660 437 651 Q437 643 432 636 Q432 636 431 634.5 Q430 633 430 633 L181 358 Q173 350 173 339 Q173 328 180 320 L430 40 Q437 33 437 24 Q436 15 430 10 L426 6 Q420 1 412 2 Q402 2 396 9 L172 260 Q165 268 156 270 Q147 272 139.5 269 Q132 266 126.5 258.5 Q121 251 121 241 L121 23 Z" /><glyph glyph-name="L" unicode="l" d="M437 47 Q447 47 454 41 Q460 34 460 24 Q460 15 454 8 Q447 1 437 1 L169 1 Q150 1 133 9 Q116 16 104 28 Q91 41 84 58 Q76 74 76 94 L76 656 Q76 665 83 672 Q90 679 100 679 Q109 679 116 672 Q123 665 123 656 L123 94 Q123 75 134 63 Q136 61 138 59 L149 52 Q151 51 153 50 Q160 47 169 47 L437 47 Z" /><glyph glyph-name="M" unicode="m" d="M123 19 Q123 9 117 3 Q110 -4 100 -4 Q90 -4 84 3 Q77 9 77 19 L77 608 Q77 640 99 659 Q114 672 130 675 Q150 680 166 674 Q179 670 190 661 Q201 652 208 637 L346 344 Q353 330 363 325 Q365 324 368 323 L371 322 Q373 322 377 322 Q381 322 383 323 L386 323 Q388 324 390 325 Q400 330 407 344 L545 636 Q558 665 587 674 Q602 678 621 675 Q621 675 623 674.5 Q625 674 626 674 Q643 669 654 659 Q676 640 676 608 L676 19 Q676 9 670 3 Q663 -4 653 -4 Q644 -4 637 3 Q630 9 630 19 L630 608 Q630 618 625 623 Q624 624 622 625 L619 627 Q617 628 612.5 629 Q608 630 607 630 L602 629 Q600 629 598 628 Q592 626 588 619 Q587 619 586 617.5 Q585 616 585 616 L448 324 Q441 309 431 299 Q420 288 408 282 Q394 275 377 275 Q362 275 345 282 Q333 288 323 299 Q312 309 305 324 L167 617 Q163 625 157 628 Q154 630 147 630 Q146 630 141 629 Q136 628 136 628 L135 627 Q129 625 127 621 Q123 616 123 608 L123 19 Z" /><glyph glyph-name="N" unicode="n" d="M118 24 Q118 14 111 8 Q104 1 94 1 Q85 1 78 8 Q71 14 71 24 L71 610 Q71 627 78 640 Q83 651 93 660 Q95 662 97 663 Q110 672 125 676 Q125 676 127 676.5 Q129 677 129 677 Q147 680 163 676 Q176 672 187 663 Q197 654 203 639 L452 62 Q455 55 461 51 Q464 49 470 49 L472 49 Q473 49 478 50 Q483 51 484 52 Q490 54 492 58 Q496 64 496 71 L496 655 Q496 665 503 672 Q509 679 519 679 Q529 679 536 672 Q542 665 542 655 L542 71 Q542 39 519 19 Q507 8 489 4 L485 4 Q470 0 452 5 Q438 10 427 19 Q416 28 409 44 L161 621 Q158 627 153 630 Q150 632 145 632 L143 632 Q142 632 137.5 631 Q133 630 132 629 L129 628 Q124 626 122 622 Q118 617 118 610 L118 24 Z" /><glyph glyph-name="O" unicode="o" d="M315 679 Q369 679 416 655 Q463 630 498 582 Q528 540 546 480 Q563 419 563 340 Q563 261 546 201 Q528 140 498 97 Q463 49 416 25 Q369 1 315 1 Q261 1 214 25 Q167 49 132 97 Q102 140 85 201 Q67 261 67 340 Q67 419 85 480 Q102 540 132 582 Q167 630 214 655 Q261 679 315 679 ZM460 555 Q433 593 396 613 Q358 632 315 632 Q272 632 235 613 Q197 593 170 555 Q144 518 129 465 Q114 412 114 340 Q114 268 129 215 Q144 161 170 124 Q197 86 235 67 Q272 47 315 47 Q358 47 396 67 Q433 86 460 124 Q486 161 501 215 Q516 268 516 340 Q516 412 501 465 Q486 518 460 555 Z" /><glyph glyph-name="P" unicode="p" d="M140 325 L288 325 Q322 325 351 337 Q380 349 402 369 Q424 390 436 418 Q448 445 448 477 Q448 509 436 537 Q424 565 402 586 Q380 606 351 618 Q322 630 288 630 L158 630 Q138 630 126 618 L116 603 Q115 601 114 599 Q111 592 111 584 L111 354 Q111 342 119.5 333.5 Q128 325 140 325 ZM111 250 L111 22 Q111 12 105 5 Q98 -2 88 -2 Q78 -2 72 5 Q65 12 65 22 L65 584 Q65 603 73 620 Q80 636 92 649 Q119 676 158 676 L288 676 Q332 676 369 661 Q406 645 434 619 Q463 592 479 556 Q494 519 494 477 Q494 435 479 399 Q463 363 434 336 Q406 310 369 295 Q332 279 288 279 L140 279 Q128 279 119.5 270.5 Q111 262 111 250 Z" /><glyph glyph-name="Q" unicode="q" d="M312 690 Q367 690 415 666 Q463 641 498 592 Q529 548 547 487 Q564 425 564 344 Q564 263 547 202 Q529 141 498 97 L487 82 L480 74 Q474 67 480 59 L541 -22 Q546 -30 545 -40 Q544 -49 536 -54 Q528 -60 519 -59 Q509 -58 503 -50 L448 23 Q444 28 437 29.5 Q430 31 424 28 Q402 15 379 8 Q347 -1 312 -1 Q256 -1 208 24 Q160 48 125 97 Q94 141 77 202 Q59 263 59 344 Q59 425 77 487 Q94 548 125 592 Q160 641 208 666 Q256 690 312 690 ZM334 175 Q328 183 330 193 Q331 202 339 208 Q347 213 357 212 Q366 211 372 203 L442 111 Q445 106 449 110 L453 115 L460 124 Q486 162 502 217 Q517 272 517 344 Q517 417 502 472 Q486 527 460 565 Q432 604 394 624 Q356 643 312 643 Q267 643 229 624 Q191 604 163 565 Q137 527 122 472 Q106 417 106 344 Q106 272 122 217 Q137 162 163 124 Q191 85 229 66 Q267 46 312 46 Q352 46 386 62 Q398 68 399.5 77 Q401 86 393 96 L334 175 Z" /><glyph glyph-name="R" unicode="r" d="M154 328 L302 328 Q337 328 366 340 Q394 352 416 372 Q437 393 450 421 Q462 448 462 480 Q462 512 450 540 Q437 568 416 588 Q394 609 365 621 Q336 633 302 633 L172 633 Q152 633 141 621 L137 617 Q125 606 125 587 L125 357 Q125 345 133.5 336.5 Q142 328 154 328 ZM508 34 Q513 26 512 17 Q510 7 502 2 Q494 -3 485 -1 Q475 1 470 9 L298 269 Q295 274 287 278 Q279 282 273 282 L154 282 Q142 282 133.5 273.5 Q125 265 125 253 L125 24 Q125 15 119 8 Q112 1 102 1 Q92 1 86 8 Q79 15 79 24 L79 587 Q79 625 106 652 Q133 679 172 679 L302 679 Q346 679 383 664 Q420 648 448 622 Q476 595 492 559 Q508 522 508 480 Q508 438 492 402 Q476 366 448 339 Q415 308 372 293 Q362 290 357.5 279.5 Q353 269 359 260 L508 34 Z" /><glyph glyph-name="S" unicode="s" d="M443 614 Q451 609 453 600 Q454 590 449 582 Q443 574 434 573 Q425 571 417 577 Q379 603 333 619 Q287 635 242 637 Q202 637 173 626 Q142 613 125 589 Q115 575 110 556 Q104 537 103 511 Q102 487 113 468 Q124 448 143 432 Q165 414 194 400 Q222 385 254 374 Q293 360 332 343 Q370 326 401 304 Q435 279 455 248 Q475 216 474 174 Q473 141 464 115 Q455 89 439 69 Q412 33 363 16 Q341 8 318 5 Q294 1 268 2 Q214 3 159 22 Q104 40 64 72 Q56 78 55 87 Q54 96 60 104 Q65 112 75 113 Q84 114 92 108 Q127 81 174 65 Q221 49 269 48 Q311 47 348 59 Q382 71 403 97 Q427 127 428 175 Q429 204 414 226 Q399 248 374 266 Q346 286 311 302 Q275 317 238 331 Q203 344 171 360 Q139 375 114 396 Q87 419 72 448 Q56 476 57 513 Q58 576 88 616 Q101 635 119 648 Q136 661 156 669 Q194 683 243 683 Q294 681 348 663 Q401 645 443 614 Z" /><glyph glyph-name="T" unicode="t" d="M306 25 Q306 16 300 9 Q293 2 283 2 Q274 2 267 9 Q260 16 260 25 L260 605 Q260 617 251.5 625.5 Q243 634 231 634 L65 634 Q56 634 49 641 Q42 647 42 657 Q42 667 49 674 Q56 680 65 680 L501 680 Q511 680 518 674 Q524 667 524 657 Q524 647 518 641 Q511 634 501 634 L335 634 Q323 634 314.5 625.5 Q306 617 306 605 L306 25 Z" /><glyph glyph-name="U" unicode="u" d="M469 667 Q469 677 476 684 Q483 690 493 690 Q503 690 510 684 Q516 677 516 667 L516 209 Q516 164 499 126 Q481 88 452 59 Q421 30 381 15 Q340 -1 294 -1 Q248 -1 208 15 Q167 30 137 59 Q107 88 90 126 Q72 164 72 209 L72 667 Q72 677 79 684 Q85 690 95 690 Q105 690 112 684 Q119 677 119 667 L119 209 Q119 174 133 145 Q146 116 169 94 Q193 71 225 59 Q257 46 294 46 Q331 46 364 59 Q396 71 419 94 Q442 116 456 145 Q469 174 469 209 L469 667 Z" /><glyph glyph-name="V" unicode="v" d="M54 643 Q51 652 56 661 Q60 669 69 672 Q79 675 88 671 Q95 667 97 658 L98 655 L273 71 L274 68 Q278 59 284 53 Q286 52 288 51 Q299 45 311 45 Q323 45 334 51 Q336 52 338 53 Q345 60 348 70 L524 658 Q527 668 536 673 Q544 677 553 674 Q562 671 567 663 Q571 654 569 645 L393 57 Q384 30 362 14 Q339 -1 311 -1 Q281 -1 260 14 Q238 30 229 57 L54 643 Z" /><glyph glyph-name="W" unicode="w" d="M50 649 Q48 658 54 666 Q59 673 69 675 Q79 677 86 671 Q93 665 95 656 L185 65 Q186 58 191 53 Q194 50 199 49 L201 48 Q202 48 207 48 Q212 48 213 48 L216 48 Q221 49 224 52 Q227 54 229 58 L229 61 L318 435 Q324 457 340 468 Q356 480 379 480 Q400 480 417 468 Q425 463 431 455 Q437 446 439 435 L528 62 Q528 59 529 57 Q531 53 535 50 Q537 49 540 48 L544 48 Q545 48 550 48 Q555 48 555 48 L558 49 Q564 50 567 53 Q571 58 572 65 L662 656 Q664 665 672 671 Q679 677 688 675 Q698 673 704 666 Q709 659 708 649 L618 58 Q616 41 607 30 Q599 19 587 11 Q585 10 583 9 L572 5 Q569 3 566 3 L552 1 Q533 -1 518 7 Q490 20 483 49 L395 422 Q394 425 392 428 Q390 430 387 431 L385 432 Q383 432 379 432 Q375 432 373 432 L370 431 Q367 430 365 428 Q363 425 362 422 L274 49 Q267 20 239 7 Q224 -1 205 1 L192 3 Q189 3 185 5 L174 9 Q172 10 170 11 Q145 27 139 58 L50 649 Z" /><glyph glyph-name="X" unicode="x" d="M476 669 Q481 677 491 679 Q500 681 508 676 Q516 671 518 662 Q520 652 515 644 L331 361 Q327 355 327 345 Q327 335 331 329 L520 37 Q525 29 523 20 Q521 10 513 5 Q505 0 496 2 Q486 4 481 12 L317 264 Q308 279 293 279 Q278 279 269 264 L105 12 Q100 4 91 2 Q81 0 73 5 Q65 10 63 20 Q61 29 66 37 L256 329 Q260 335 260 345 Q260 355 256 361 L72 644 Q67 652 69 662 Q71 671 79 676 Q87 681 97 679 Q106 677 111 669 L269 425 Q278 410 293 410 Q308 410 317 425 L476 669 Z" /><glyph glyph-name="Y" unicode="y" d="M478 668 Q483 676 493 679 Q502 681 510 676 Q518 671 521 662 Q524 653 519 645 L320 299 Q319 297 317.5 291.5 Q316 286 316 284 L316 23 Q316 13 310 7 Q303 0 293 0 Q283 0 277 7 Q270 13 270 23 L270 284 Q270 286 268.5 291.5 Q267 297 266 299 L66 646 Q61 655 64 664 Q67 673 75 678 Q83 683 93 680 Q102 677 107 669 L268 388 Q277 372 293 372 Q309 372 318 388 L478 668 Z" /><glyph glyph-name="Z" unicode="z" d="M487 45 Q496 45 503 39 Q510 32 510 22 Q510 12 503 6 Q496 -1 487 -1 L151 -1 Q118 -1 94 18 Q79 30 71 47 Q62 63 62 83 Q62 111 82 137 L423 572 Q430 582 431 593 Q431 595 430 598 L429 603 Q429 604 426.5 609 Q424 614 424 616 L421 619 Q419 622 416 623 Q405 630 386 630 L85 630 Q75 630 69 637 Q62 644 62 653 Q62 663 69 670 Q75 677 85 677 L386 677 Q406 677 421 672 Q436 666 447 657 Q463 644 470 629 Q477 614 477 595 Q477 566 459 544 L118 108 Q110 97 109 85 Q109 83 109 80 L111 75 Q111 73 113.5 67.5 Q116 62 117 61 L119 58 Q120 58 123.5 55 Q127 52 128 51 L131 50 Q131 50 135 48.5 Q139 47 140 47 L149 45 Q149 45 151 45 Q153 45 153 45 L487 45 Z" /><glyph glyph-name="bracketleft" unicode="[" d="M215 -58 Q224 -58 231 -65 Q238 -71 238 -81 Q238 -91 231 -98 Q224 -104 215 -104 L92 -104 Q82 -104 76 -98 Q69 -91 69 -81 L69 722 Q69 732 76 739 Q82 745 92 745 L215 745 Q224 745 231 739 Q238 732 238 722 Q238 712 231 706 Q224 699 215 699 L144 699 Q132 699 123.5 690.5 Q115 682 115 670 L115 -29 Q115 -41 123.5 -49.5 Q132 -58 144 -58 L215 -58 Z" /><glyph glyph-name="backslash" unicode="\" d="M40 725 Q38 735 43 743 Q46 750 54 753 Q56 754 58 754 Q66 755 74 752 Q82 747 84 738 L308 -76 Q310 -86 306 -94 Q302 -101 294 -104 Q292 -105 290 -105 Q281 -106 274 -103 Q266 -98 263 -89 L40 725 Z" /><glyph glyph-name="bracketright" unicode="]" d="M166 -29 L166 670 Q166 682 157.5 690.5 Q149 699 137 699 L66 699 Q57 699 50 706 Q43 712 43 722 Q43 732 50 739 Q57 745 66 745 L189 745 Q199 745 206 739 Q212 732 212 722 L212 -81 Q212 -91 206 -98 Q199 -104 189 -104 L66 -104 Q57 -104 50 -98 Q43 -91 43 -81 Q43 -71 50 -65 Q57 -58 66 -58 L137 -58 Q149 -58 157.5 -49.5 Q166 -41 166 -29 Z" /><glyph glyph-name="asciicircum" unicode="^" d="M392 581 Q398 574 398 565 Q398 555 391 549 Q384 542 375 542 Q365 542 358 549 L249 663 Q245 666 240 667 Q236 667 231 665 L227 664 Q226 664 221.5 661 Q217 658 216 657 L113 549 Q106 542 97 542 Q87 542 80 549 Q73 555 73 565 Q73 574 79 581 L190 695 Q198 704 209 708 Q209 708 210.5 708.5 Q212 709 213 709 L232 713 Q235 714 237 714 Q261 713 282 695 L392 581 Z" /><glyph glyph-name="underscore" unicode="_" d="M3 -130 Q-7 -130 -14 -123 Q-20 -116 -20 -106 Q-20 -97 -14 -90 Q-7 -83 3 -83 L302 -83 Q311 -83 318 -90 Q325 -97 325 -106 Q325 -116 318 -123 Q311 -130 302 -130 L3 -130 Z" /><glyph glyph-name="a" unicode="a" d="M76 396 Q69 389 60 389 Q51 389 44 396 Q37 403 37 413 Q36 422 43 429 Q69 455 108 472 Q137 485 169 491 Q201 496 233 494 Q265 492 295 481 Q324 469 347 447 Q366 428 376 404 Q387 381 391 354 Q394 327 395 294 L395 24 Q395 14 389 8 Q382 1 372 1 Q363 1 356 8 Q349 14 349 24 L349 48 Q349 53 344.5 55 Q340 57 336 54 Q317 40 299 31 Q273 17 247 9 Q194 -6 145 7 Q96 19 68 61 Q56 78 49 101 Q42 123 42 149 Q42 164 45 178 Q47 191 52 203 Q63 230 81 248 Q96 264 114 273 Q132 282 152 287 Q172 292 194 294 L239 297 L292 301 Q314 303 336 308 Q348 311 347 323 Q346 338 344 352 Q341 371 334 386 Q327 401 314 414 Q298 430 277 438 Q255 446 229 448 Q203 450 177 445 Q151 440 128 431 L125 429 L99 415 Q86 407 76 396 ZM349 252 Q349 264 337 261 Q314 257 294 255 L241 251 Q201 249 168 244 Q136 238 116 218 L113 215 L105 204 Q103 202 102 199 L95 186 Q89 171 89 149 Q89 112 106 87 Q124 60 157 52 Q191 42 235 54 Q264 62 294 81 Q318 96 341 119 Q343 122 346 129 Q349 136 349 139 L349 252 Z" /><glyph glyph-name="b" unicode="b" d="M140 484 L230 483 Q275 483 312 464 Q349 445 377 412 Q405 380 421 336 Q436 292 436 242 Q436 192 421 149 Q405 105 377 72 Q349 39 312 20 Q275 1 230 1 L157 1 Q138 1 122 7 Q105 14 92 28 Q78 42 72 58 Q65 73 65 93 L65 655 Q65 665 72 672 Q78 678 88 678 Q98 678 105 672 Q111 665 111 655 L111 513 Q111 501 119.5 492.5 Q128 484 140 484 ZM111 408 L111 95 Q111 95 111 93 Q111 91 111 91 L113 79 Q113 79 114.5 75.5 Q116 72 116 71 L117 70 Q118 68 120 66 L125 60 Q132 52 140 50 L154 47 Q157 47 160 47 L230 47 Q263 47 292 62 Q321 76 342 102 Q365 128 378 164 Q390 200 390 242 Q390 284 378 320 Q365 356 342 383 Q321 408 292 423 Q263 437 230 437 L140 437 Q128 437 119.5 428.5 Q111 420 111 408 Z" /><glyph glyph-name="c" unicode="c" d="M385 475 Q395 473 400 465 Q404 457 402 448 Q400 438 392 433 Q384 428 375 430 L342 436 Q322 439 297 439 Q268 439 237 434 Q206 428 177 413 Q150 398 129 373 Q108 348 98 307 Q91 282 91 243 Q91 205 98 180 Q108 139 129 114 Q150 88 177 74 Q206 59 238 54 Q269 48 298 48 Q323 48 343 51 L375 56 Q384 58 392 54 Q400 49 402 39 Q404 30 400 22 Q395 13 385 11 L348 5 Q325 2 298 2 Q264 2 227 9 Q190 15 156 33 Q121 52 93 85 Q65 117 53 169 Q45 204 45 243 Q45 283 53 318 Q65 370 93 403 Q120 435 155 454 Q190 472 227 479 Q264 485 297 485 Q325 485 348 482 Q371 479 385 475 Z" /><glyph glyph-name="d" unicode="d" d="M344 436 L254 436 Q221 436 192 422 Q163 407 142 381 Q119 354 107 319 Q94 283 94 241 Q94 199 107 163 Q119 127 142 100 Q163 74 192 60 Q221 45 254 45 L326 45 Q334 45 340 47 L346 50 Q352 52 356 56 L362 62 Q366 66 368 72 L371 78 Q373 84 373 92 L373 407 Q373 419 364.5 427.5 Q356 436 344 436 ZM373 511 L373 653 Q373 663 380 670 Q386 677 396 677 Q406 677 413 670 Q419 663 419 653 L419 92 Q419 71 412 56 Q404 38 392 26 Q378 12 362 6 Q347 -1 326 -1 L254 -1 Q209 -1 172 18 Q134 37 106 70 Q79 103 64 147 Q48 190 48 241 Q48 291 64 335 Q79 378 106 411 Q134 444 172 463 Q209 482 254 482 L344 482 Q356 482 364.5 490.5 Q373 499 373 511 Z" /><glyph glyph-name="e" unicode="e" d="M431 90 Q439 95 449 94 Q458 92 463 84 Q468 76 467 67 Q465 57 457 52 Q416 26 373 13 Q330 0 287 0 Q226 0 172 26 Q146 39 124 58 Q101 77 84 103 Q45 162 45 245 Q45 320 73 373 Q101 426 145 457 Q190 488 245 496 Q298 504 349 485 Q395 469 431 432 Q466 395 481 336 Q487 319 483 302 L482 298 Q478 282 467 266 Q456 252 439 243 Q421 235 403 235 L121 235 Q107 235 99.5 226.5 Q92 218 94 204 Q101 160 123 128 Q136 108 154 93 Q171 78 192 67 Q234 46 287 46 Q323 46 360 57 Q397 68 431 90 ZM171 419 Q142 398 121 364 Q105 338 97 305 Q95 295 100.5 288 Q106 281 117 281 L403 281 Q413 281 418 285 L425 290 Q426 291 429.5 296 Q433 301 434 302 L435 304 Q435 304 436 309 Q437 314 437 315 L437 321 Q437 322 436.5 324.5 Q436 327 436 327 Q424 372 397 400 Q369 429 334 442 Q292 456 251 450 Q230 447 210 440 Q189 432 171 419 Z" /><glyph glyph-name="f" unicode="f" d="M372 677 Q382 677 389 670 Q395 663 395 653 Q395 644 389 637 Q382 630 372 630 L305 630 Q290 630 277 623 Q263 615 252 602 Q228 572 228 526 L228 504 Q228 495 234.5 488.5 Q241 482 250 482 L367 482 Q377 482 384 476 Q390 469 390 459 Q390 449 384 443 Q377 436 367 436 L257 436 Q245 436 236.5 427.5 Q228 419 228 407 L228 22 Q228 12 221 6 Q214 -1 205 -1 Q195 -1 188 6 Q181 12 181 22 L181 407 Q181 419 172.5 427.5 Q164 436 152 436 L64 436 Q54 436 48 443 Q41 449 41 459 Q41 469 48 476 Q54 482 64 482 L159 482 Q168 482 174.5 488.5 Q181 495 181 504 L181 526 Q181 556 191 583 Q200 610 216 630 Q233 652 256 665 Q279 677 305 677 L372 677 Z" /><glyph glyph-name="g" unicode="g" d="M253 494 Q294 494 329 479 Q356 467 379 445 Q382 442 387 444 Q392 446 392 451 L393 471 Q393 481 400 488 Q406 494 416 494 Q426 494 433 488 Q439 481 439 471 L439 28 Q439 -18 424 -53 Q408 -88 382 -113 Q368 -127 351 -137 Q334 -147 315 -155 Q276 -169 236 -169 Q189 -169 143 -151 Q97 -132 61 -94 Q54 -87 54 -78 Q54 -69 60 -64 L64 -60 Q70 -55 78 -55 Q87 -55 94 -62 Q123 -93 161 -108 Q198 -122 236 -122 Q271 -122 299 -111 Q313 -106 326 -99 Q339 -91 350 -80 Q370 -61 382 -34 Q393 -7 393 28 L393 125 L390 121 Q364 91 329 76 Q294 60 253 60 Q168 60 115 121 Q92 149 79 188 Q66 226 66 277 Q66 328 79 367 Q92 406 115 433 Q141 464 176 479 Q211 494 253 494 ZM355 403 Q336 426 310 437 Q283 448 253 448 Q189 448 150 403 Q133 382 123 351 Q112 319 112 277 Q112 235 123 204 Q133 172 150 151 Q170 128 196 118 Q222 107 253 107 Q283 107 310 118 Q336 128 355 151 Q372 172 383 204 Q393 235 393 277 Q393 319 383 351 Q372 382 355 403 Z" /><glyph glyph-name="h" unicode="h" d="M141 485 L275 485 Q306 485 334 473 Q361 461 381 441 Q401 421 413 394 Q425 366 425 335 L425 25 Q425 15 419 9 Q412 2 402 2 Q392 2 386 9 Q379 15 379 25 L379 335 Q379 356 371 375 Q362 394 348 408 Q334 422 315 431 Q296 439 275 439 L141 439 Q129 439 120.5 430.5 Q112 422 112 410 L112 25 Q112 15 106 9 Q99 2 89 2 Q79 2 73 9 Q66 15 66 25 L66 657 Q66 666 73 673 Q79 680 89 680 Q99 680 106 673 Q112 666 112 657 L112 514 Q112 502 120.5 493.5 Q129 485 141 485 Z" /><glyph glyph-name="i" unicode="i" d="M121 24 Q121 14 114 8 Q107 1 98 1 Q88 1 81 8 Q74 14 74 24 L74 460 Q74 470 81 477 Q88 484 98 484 Q107 484 114 477 Q121 470 121 460 L121 24 ZM121 608 Q121 598 114 592 Q107 585 98 585 Q88 585 81 592 Q74 598 74 608 L74 655 Q74 665 81 672 Q88 678 98 678 Q107 678 114 672 Q121 665 121 655 L121 608 Z" /><glyph glyph-name="j" unicode="j" d="M158 611 Q158 601 151 595 Q144 588 134 588 Q124 588 118 595 Q111 601 111 611 L111 659 Q111 669 118 676 Q124 683 134 683 Q144 683 151 676 Q158 669 158 659 L158 611 ZM-18 -193 Q-28 -193 -35 -186 Q-42 -179 -42 -169 Q-42 -159 -35 -152 Q-28 -145 -18 -145 L4 -145 Q27 -145 46 -137 Q65 -128 79 -114 Q111 -84 111 -39 L111 460 Q111 470 118 477 Q124 484 134 484 Q144 484 151 477 Q158 470 158 460 L158 -39 Q158 -71 146 -99 Q134 -127 113 -148 Q92 -168 64 -181 Q36 -193 4 -193 L-18 -193 Z" /><glyph glyph-name="k" unicode="k" d="M338 480 Q346 486 356 485 Q365 483 371 475 Q376 467 375 458 Q374 449 366 443 L155 283 Q143 274 143 260 Q143 246 155 237 L398 47 Q406 41 407 32 Q408 22 402 14 Q396 6 387 5 Q377 4 369 10 L157 176 Q142 188 126 180.5 Q110 173 110 153 L110 25 Q110 15 104 8 Q97 1 87 1 Q77 1 71 8 Q64 15 64 25 L64 656 Q64 666 71 673 Q77 679 87 679 Q97 679 104 673 Q110 666 110 656 L110 365 Q110 346 125.5 338.5 Q141 331 157 342 L338 480 Z" /><glyph glyph-name="l" unicode="l" d="M120 22 Q120 12 113 6 Q106 -1 97 -1 Q87 -1 80 6 Q73 12 73 22 L73 653 Q73 663 80 670 Q87 677 97 677 Q106 677 113 670 Q120 663 120 653 L120 22 Z" /><glyph glyph-name="m" unicode="m" d="M374 435 Q387 448 403 458 Q424 471 448 479 Q483 491 521 489 Q559 487 591 470 Q619 454 636 427 Q653 400 653 359 L653 26 Q653 16 647 10 Q640 3 630 3 Q620 3 614 10 Q607 16 607 26 L607 359 Q607 385 597 403 Q586 420 569 430 Q548 441 519 443 Q492 444 462 435 Q433 426 411 406 Q390 388 382 361 Q382 361 381.5 357.5 Q381 354 381 354 L381 26 Q381 16 375 10 Q368 3 358 3 Q349 3 342 10 Q335 16 335 26 L335 359 Q335 385 326 403 Q316 421 300 432 Q279 445 250 448 Q220 451 193 442 Q167 434 146 417 Q127 401 118 377 Q118 377 117.5 373 Q117 369 117 369 L117 26 Q117 16 111 10 Q104 3 94 3 Q84 3 78 10 Q71 16 71 26 L71 463 Q71 473 78 480 Q84 486 94 486 Q104 486 111 480 Q117 473 117 463 L117 458 Q117 452 120 455 Q145 476 179 486 Q217 497 254 494 Q274 492 292 487 Q309 481 325 470 Q346 456 360 436 Q366 427 374 435 Z" /><glyph glyph-name="n" unicode="n" d="M119 450 Q134 461 151 470 Q171 479 193 485 Q216 491 240 493 Q263 495 286 492 Q335 487 370 464 Q396 447 412 421 Q427 394 427 358 L427 25 Q427 15 421 9 Q414 2 404 2 Q394 2 388 9 Q381 15 381 25 L381 358 Q381 381 372 398 Q362 415 345 426 Q317 443 281 446 Q243 451 205 440 Q173 432 148 415 Q125 398 116 375 Q115 374 114.5 370.5 Q114 367 114 366 L114 25 Q114 15 108 9 Q101 2 91 2 Q81 2 75 9 Q68 15 68 25 L68 462 Q68 472 75 479 Q81 485 91 485 Q101 485 108 479 Q114 472 114 462 L114 454 Q114 446 119 450 Z" /><glyph glyph-name="o" unicode="o" d="M271 484 Q316 484 356 468 Q395 451 424 416 Q450 386 465 343 Q479 300 479 243 Q479 186 465 143 Q450 99 424 69 Q395 34 356 18 Q316 1 271 1 Q226 1 187 18 Q147 34 118 69 Q92 99 78 143 Q63 186 63 243 Q63 300 78 343 Q92 386 118 416 Q147 451 187 468 Q226 484 271 484 ZM388 387 Q344 438 271 438 Q236 438 206 426 Q175 413 153 387 Q133 362 121 327 Q109 291 109 243 Q109 194 121 159 Q133 123 153 98 Q175 72 206 60 Q236 47 271 47 Q344 47 388 98 Q409 123 421 159 Q432 194 432 243 Q432 291 421 327 Q409 362 388 387 Z" /><glyph glyph-name="p" unicode="p" d="M142 63 L231 63 Q265 63 294 78 Q322 92 343 117 Q366 144 379 180 Q391 216 391 258 Q391 300 379 336 Q366 372 343 398 Q322 424 294 439 Q265 453 231 453 L161 453 Q161 453 159 453 Q157 453 157 453 L145 451 Q145 451 141.5 449.5 Q138 448 137 448 L135 446 L132 445 L130 443 Q129 442 126.5 439.5 Q124 437 123 436 L121 434 L120 431 L118 429 Q118 428 116.5 424.5 Q115 421 115 421 L113 409 Q113 409 113 407 Q113 405 113 405 L113 92 Q113 80 121.5 71.5 Q130 63 142 63 ZM113 -13 L113 -155 Q113 -165 106 -172 Q99 -178 89 -178 Q80 -178 73 -172 Q66 -165 66 -155 L66 407 Q66 423 73 442 Q80 458 94 472 Q106 485 124 493 Q139 499 159 499 L231 499 Q276 499 314 480 Q351 461 379 428 Q407 395 423 352 Q438 308 438 258 Q438 208 423 164 Q407 120 379 88 Q351 55 314 36 Q276 17 231 17 L142 16 Q130 16 121.5 7.5 Q113 -1 113 -13 Z" /><glyph glyph-name="q" unicode="q" d="M337 16 L247 17 Q202 17 165 36 Q127 55 99 88 Q72 120 57 164 Q41 208 41 258 Q41 308 57 352 Q72 395 99 428 Q127 461 165 480 Q202 499 247 499 L319 499 Q337 499 353 494 Q353 494 355 493 Q357 492 357 492 Q372 484 385 472 Q399 458 405 442 Q412 427 412 407 L412 -155 Q412 -165 406 -172 Q399 -178 389 -178 Q379 -178 373 -172 Q366 -165 366 -155 L366 -13 Q366 -1 357.5 7.5 Q349 16 337 16 ZM366 92 L366 405 Q366 405 366 407 Q366 409 366 409 L364 421 Q364 421 362.5 424.5 Q361 428 361 429 L360 430 Q359 432 357 434 L355 437 Q354 437 351.5 439.5 Q349 442 349 442 L342 447 Q341 447 336.5 449 Q332 451 331 451 L321 453 Q321 453 319 453 Q317 453 317 453 L247 453 Q214 453 185 439 Q156 424 135 398 Q112 372 100 336 Q87 300 87 258 Q87 216 100 180 Q112 144 135 117 Q156 92 185 78 Q214 63 247 63 L337 63 Q349 63 357.5 71.5 Q366 80 366 92 Z" /><glyph glyph-name="r" unicode="r" d="M114 399 L118 404 Q118 404 119.5 405.5 Q121 407 121 408 L132 418 Q161 445 200 461 Q238 476 281 478 Q290 478 297 472 Q303 466 304 457 L304 453 Q304 445 299 439 Q292 432 282 432 Q247 431 217 419 Q187 406 163 384 Q140 364 126 336 Q113 308 108 276 L108 22 Q108 13 102 6 Q95 -1 85 -1 Q75 -1 69 6 Q62 13 62 22 L62 459 Q62 469 69 476 Q75 482 85 482 Q95 482 102 476 Q108 469 108 459 L108 401 Q108 399 110 398 Q112 397 114 399 Z" /><glyph glyph-name="s" unicode="s" d="M375 448 Q383 443 385 434 Q387 424 382 416 Q377 408 368 406 Q358 404 350 409 Q322 426 288 438 Q253 449 219 451 Q201 452 184 450 Q167 448 152 443 Q139 438 129 430 Q118 422 111 411 Q100 395 98 368 Q97 340 127 318 Q144 305 166 296 Q188 286 214 278 Q246 267 278 255 Q309 243 334 227 Q362 209 379 185 Q395 160 393 128 Q392 91 372 62 Q359 43 341 31 Q322 18 299 11 Q279 3 256 1 Q232 -2 207 0 Q165 2 124 16 Q82 29 51 50 Q43 56 42 65 Q40 74 45 82 Q51 90 61 92 Q70 93 78 88 Q104 71 139 60 Q173 48 210 46 Q230 45 249 47 Q268 49 285 55 Q318 64 334 88 Q346 106 347 130 Q349 148 338 163 Q327 177 309 188 Q287 202 259 213 Q230 224 200 234 Q171 243 145 255 Q119 266 99 281 Q76 298 63 320 Q50 341 52 370 Q53 408 71 435 Q83 454 100 466 Q117 478 137 486 Q156 493 178 496 Q199 498 222 497 Q262 495 302 482 Q342 468 375 448 Z" /><glyph glyph-name="t" unicode="t" d="M315 47 Q325 47 332 40 Q339 33 339 23 Q339 13 332 7 Q325 0 315 0 L270 0 Q217 0 186 37 Q156 71 156 131 L156 416 Q156 428 147.5 436.5 Q139 445 127 445 L67 445 Q56 445 50 452 Q43 459 43 469 Q43 479 50 486 Q56 493 67 493 L127 493 Q139 493 147.5 501.5 Q156 510 156 522 L156 615 Q156 625 163 632 Q169 638 179 638 Q189 638 196 632 Q203 625 203 615 L203 522 Q203 510 211.5 501.5 Q220 493 232 493 L314 493 Q324 493 331 486 Q338 479 338 469 Q338 459 331 452 Q324 445 314 445 L232 445 Q220 445 211.5 436.5 Q203 428 203 416 L203 131 Q203 91 222 67 Q239 47 270 47 L315 47 Z" /><glyph glyph-name="u" unicode="u" d="M393 467 Q393 477 400 484 Q406 490 416 490 Q426 490 433 484 Q439 477 439 467 L439 17 Q439 7 433 1 Q426 -6 416 -6 Q406 -6 400 1 Q393 7 393 17 L393 32 Q393 37 388.5 39 Q384 41 380 38 Q349 18 309 7 Q285 1 260 -1 Q235 -2 211 0 Q186 3 164 10 Q141 17 123 30 Q97 47 82 73 Q66 99 66 135 L66 467 Q66 477 73 484 Q80 490 89 490 Q99 490 106 484 Q112 477 112 467 L112 135 Q112 112 122 96 Q132 79 148 68 Q175 51 216 46 Q258 41 297 52 Q331 60 357 78 Q381 94 391 117 Q392 118 392.5 121.5 Q393 125 393 126 L393 467 Z" /><glyph glyph-name="v" unicode="v" d="M53 455 Q51 464 56 473 Q59 480 67 483 Q69 484 71 484 Q79 485 87 482 Q95 477 98 468 L219 63 Q219 63 220.5 59.5 Q222 56 222 55 L224 53 Q226 49 229 48 Q234 46 241 46 Q250 46 254 49 Q255 50 256 51 L259 55 Q259 55 261 59 Q263 63 264 64 L384 468 Q387 477 396 482 Q403 485 411 484 Q413 484 415 483 Q423 480 427 473 Q431 464 429 455 L306 46 Q301 25 282 12 Q265 -1 241 -1 Q217 -1 200 12 Q182 25 175 46 L53 455 Z" /><glyph glyph-name="w" unicode="w" d="M57 463 Q55 473 61 481 Q66 489 75 491 Q85 493 93 488 Q101 482 103 473 L188 58 Q189 55 191 53 Q192 50 196 49 Q199 47 203 48 L207 49 L210 52 L304 332 Q312 352 327 361 Q342 370 359 370 Q376 370 390 361 Q407 352 413 332 L508 53 Q510 49 514 48 Q518 47 522 49 Q525 50 527 53 Q529 55 530 58 L614 473 Q616 482 624 488 Q632 493 642 491 Q652 489 657 481 Q662 473 660 463 L575 46 Q571 27 556 14 Q543 4 525 0 Q525 0 523 0 Q521 0 520 0 Q505 0 487 8 Q469 17 463 37 L369 317 L366 321 L363 322 Q359 323 356 322 L352 321 L349 317 L255 37 Q252 28 247 22 Q246 20 244 19 L232 9 Q232 9 230.5 8 Q229 7 229 7 Q214 -2 196 0 Q178 3 163 13 Q161 14 159 16 Q146 28 143 46 L57 463 Z" /><glyph glyph-name="x" unicode="x" d="M390 488 Q395 496 405 497 Q415 498 423 493 Q431 487 432 478 Q433 468 427 460 L290 276 Q285 269 285 259 Q285 249 290 242 L441 40 Q447 32 446 22 Q445 12 437 7 Q429 1 420 2 Q410 3 404 11 L270 189 Q261 201 247 201 Q233 201 224 189 L91 11 Q85 3 76 2 Q66 1 58 7 Q50 12 49 22 Q47 32 53 40 L205 242 Q210 249 210 259 Q210 269 205 276 L67 460 Q61 468 63 478 Q64 487 72 493 Q80 498 90 497 Q99 496 105 488 L224 329 Q233 317 247 317 Q261 317 270 329 L390 488 Z" /><glyph glyph-name="y" unicode="y" d="M388 480 Q391 489 400 493 Q408 497 416 494 L420 492 Q427 489 431 482 Q435 473 431 464 L278 56 L226 -82 Q214 -114 193 -134 Q172 -153 146 -163 Q123 -172 98 -175 Q73 -177 50 -176 Q41 -175 35 -168 Q29 -162 28 -154 Q28 -152 28 -150 Q30 -141 36 -136 Q42 -129 52 -130 Q71 -131 91 -129 Q111 -127 130 -120 Q147 -113 161 -101 Q175 -88 183 -66 L227 52 Q228 55 227.5 63 Q227 71 226 74 L49 462 Q44 471 48 480 Q51 489 60 493 Q69 497 78 494 Q86 490 91 481 L225 187 Q234 169 252.5 169.5 Q271 170 279 189 L388 480 Z" /><glyph glyph-name="z" unicode="z" d="M402 48 Q412 48 419 42 Q425 35 425 25 Q425 15 419 8 Q412 1 402 1 L108 1 Q92 1 80 6 Q68 10 60 18 Q50 29 45 40 Q41 51 41 64 Q41 88 57 107 L351 421 Q353 423 354 426 Q355 429 354 433 Q353 436 351 439 Q349 443 345 444 L339 446 Q339 446 335 446.5 Q331 447 330 447 L78 447 Q68 447 61 454 Q54 460 54 471 Q54 481 61 488 Q68 494 78 494 L335 494 Q361 494 380 478 Q390 468 396 457 Q397 455 398 453 Q402 439 402 429 Q402 406 387 390 L96 79 Q95 79 92.5 74.5 Q90 70 90 69 Q88 64 90 59 Q91 54 94 52 Q100 48 108 48 L402 48 Z" /><glyph glyph-name="braceleft" unicode="{" d="M243 738 Q253 738 260 732 Q266 725 266 715 Q266 705 260 699 Q253 692 243 692 L229 692 Q201 692 184 685 Q167 678 157 664 Q146 650 142 630 Q138 610 138 586 L138 440 L137 414 Q135 398 127 379 Q121 365 111 349 Q103 337 92 326 Q89 323 89 317.5 Q89 312 92 309 Q116 283 127 256 Q135 238 137 223 L138 196 L138 50 Q138 26 142 6 Q146 -15 157 -29 Q167 -42 184 -50 Q201 -57 229 -57 L243 -57 Q253 -57 260 -64 Q266 -70 266 -80 Q266 -89 260 -96 Q253 -103 243 -103 L229 -103 Q189 -103 163 -91 Q136 -78 120 -56 Q104 -35 98 -8 Q92 19 92 50 L92 196 L91 212 Q90 215 90 218 L84 238 L83 241 Q78 253 68 267 Q58 280 40 293 Q40 294 38 296 Q36 298 36 298 L33 301 Q33 301 31 305 Q29 309 28 310 L28 312 Q28 313 28 318 Q28 323 28 326 Q29 327 31 331 Q33 335 33 335 L36 338 Q36 338 38 340 Q40 342 40 343 Q58 356 68 369 Q79 383 84 397 L90 418 Q90 421 91 424 L92 440 L92 586 Q92 617 98 644 Q104 671 120 692 Q136 714 163 726 Q189 738 229 738 L243 738 Z" /><glyph glyph-name="bar" unicode="|" d="M114 -101 Q114 -111 107 -118 Q100 -124 91 -124 Q81 -124 75 -118 Q68 -111 68 -101 L68 744 Q68 754 75 761 Q81 767 91 767 Q100 767 107 761 Q114 754 114 744 L114 -101 Z" /><glyph glyph-name="braceright" unicode="}" d="M74 738 Q114 738 141 726 Q167 714 183 692 Q199 671 205 644 Q211 617 211 586 L211 440 L212 424 Q212 421 213 418 L219 397 Q224 383 235 369 Q245 356 263 343 Q263 342 265 340 Q267 338 267 338 L270 335 Q270 335 272 331 Q274 327 275 325 Q275 323 275 318 Q275 313 275 312 L275 310 Q274 309 272 305 Q270 301 270 301 L267 298 Q267 298 265 296 Q263 294 263 293 Q245 280 235 267 Q225 253 220 241 L219 238 L213 218 Q212 215 212 212 L211 196 L211 50 Q211 19 205 -8 Q199 -35 183 -56 Q167 -78 141 -91 Q114 -103 74 -103 L60 -103 Q50 -103 44 -96 Q37 -89 37 -80 Q37 -70 44 -64 Q50 -57 60 -57 L74 -57 Q102 -57 119 -50 Q136 -42 146 -29 Q157 -15 161 6 Q165 26 165 50 L165 196 L167 223 Q168 238 176 256 Q187 283 211 309 Q214 312 214 317.5 Q214 323 211 326 Q200 337 193 349 Q182 365 176 379 Q168 398 167 414 L165 440 L165 586 Q165 610 161 630 Q157 650 146 664 Q136 678 119 685 Q102 692 74 692 L60 692 Q50 692 44 699 Q37 705 37 715 Q37 725 44 732 Q50 738 60 738 L74 738 Z" /><glyph glyph-name="quotedblleft" unicode="&#x201c;" d="M705 621 Q702 612 694 608 Q685 603 676 606 Q667 609 663 617 Q659 624 660 633 Q660 633 660 634.5 Q660 636 660 636 L710 801 Q713 810 722 815 Q729 818 737 817 Q739 817 741 816 Q749 813 753 806 Q757 797 755 788 L705 621 ZM845 621 Q842 612 834 608 Q825 603 816 606 Q807 609 803 617 Q799 624 800 633 Q800 633 800 634.5 Q800 636 800 636 L850 801 Q853 810 862 815 Q869 818 877 817 Q879 817 881 816 Q889 813 893 806 Q897 797 895 788 L845 621 Z" /><glyph glyph-name="uni300A" unicode="&#x300a;" d="M712 798 Q716 807 725 811 Q733 815 742 811 Q751 807 755 799 Q759 790 755 781 L600 401 Q594 387 594 373 Q594 359 600 344 L755 -36 Q759 -44 755 -53 Q752 -61 744 -65 Q742 -66 740 -67 Q732 -69 725 -66 Q716 -62 712 -53 L557 327 Q548 349 548 373 Q548 395 557 418 L712 798 ZM868 798 Q872 807 881 811 Q889 815 898 811 Q907 807 911 799 Q915 790 911 781 L756 401 Q750 387 750 373 Q750 359 756 344 L911 -36 Q915 -44 911 -53 Q908 -61 900 -65 Q898 -66 896 -67 Q888 -69 881 -66 Q872 -62 868 -53 L713 327 Q704 349 704 373 Q704 395 713 418 L868 798 Z" /><glyph glyph-name="uni300B" unicode="&#x300b;" d="M283 418 Q292 395 292 373 Q292 349 283 327 L128 -53 Q124 -62 116 -66 Q108 -69 100 -67 Q98 -66 96 -65 Q89 -61 85 -53 Q81 -44 85 -36 L240 344 Q246 359 246 373 Q246 387 240 401 L85 781 Q81 790 85 799 Q89 807 98 811 Q107 815 116 811 Q124 807 128 798 L283 418 ZM443 418 Q452 395 452 373 Q452 349 443 327 L288 -53 Q284 -62 276 -66 Q268 -69 260 -67 Q258 -66 256 -65 Q248 -61 245 -53 Q241 -44 245 -36 L400 344 Q406 359 406 373 Q406 387 400 401 L245 781 Q241 790 245 799 Q249 807 258 811 Q267 815 276 811 Q284 807 288 798 L443 418 Z" /><glyph glyph-name="uni4E00" unicode="&#x4e00;" d="M83 379 Q73 379 67 386 Q60 392 60 402 Q60 412 67 419 Q73 425 83 425 L916 425 Q926 425 933 419 Q939 412 939 402 Q939 392 933 386 Q926 379 916 379 L83 379 Z" /><glyph glyph-name="uni4E0B" unicode="&#x4e0b;" d="M476 -50 Q476 -59 470 -66 Q463 -73 453 -73 Q443 -73 437 -66 Q430 -59 430 -50 L430 703 Q430 715 421.5 723.5 Q413 732 401 732 L93 732 Q83 732 77 739 Q70 745 70 755 Q70 765 77 772 Q83 778 93 778 L906 778 Q916 778 923 772 Q929 765 929 755 Q929 745 923 739 Q916 732 906 732 L505 732 Q493 732 484.5 723.5 Q476 715 476 703 L476 582 Q476 571 484 562.5 Q492 554 503 552 Q554 546 592 531 Q638 512 670 484 Q701 456 722 423 Q742 389 760 355 Q780 317 803 284 Q825 251 864 235 Q873 232 877 223 Q880 215 879 207 Q878 205 877 203 Q873 197 866 193 Q857 189 848 192 Q822 202 803 217 Q784 232 769 251 Q754 270 743 291 L719 334 Q704 363 686 393 Q668 422 641 447 Q614 471 575 488 Q545 500 504 506 Q491 508 483.5 500 Q476 492 476 479 L476 -50 Z" /><glyph glyph-name="uni4E16" unicode="&#x4e16;" d="M419 794 Q419 804 426 811 Q433 817 442 817 Q452 817 459 811 Q466 804 466 794 L466 666 Q466 654 474.5 645.5 Q483 637 495 637 L753 637 Q765 637 773.5 645.5 Q782 654 782 666 L782 794 Q782 804 789 811 Q795 817 805 817 Q815 817 822 811 Q828 804 828 794 L828 666 Q828 654 836.5 645.5 Q845 637 857 637 L921 637 Q930 637 937 631 Q944 624 944 614 Q944 605 937 598 Q930 591 921 591 L857 591 Q845 591 836.5 582.5 Q828 574 828 562 L828 287 Q828 242 798 214 Q784 200 765 192 Q746 183 724 183 L523 183 Q502 183 484 191 Q465 198 451 213 Q436 228 428 247 Q419 265 419 287 L419 562 Q419 574 410.5 582.5 Q402 591 390 591 L232 591 Q220 591 211.5 582.5 Q203 574 203 562 L203 65 Q203 53 208 43 Q212 32 220 24 Q228 16 239 12 Q249 7 261 7 L651 7 L719 6 Q752 5 787 0 Q821 -4 856 -11 Q891 -17 929 -28 Q938 -31 943 -39 Q946 -46 945 -55 Q945 -57 944 -59 Q941 -67 934 -71 Q927 -74 918 -73 Q917 -73 914 -72 Q880 -62 848 -56 Q814 -50 781 -46 Q749 -42 717 -41 Q684 -39 651 -39 L261 -39 Q240 -39 221 -31 Q202 -22 188 -8 Q174 6 166 25 Q157 44 157 65 L157 562 Q157 574 148.5 582.5 Q140 591 128 591 L72 591 Q63 591 56 598 Q49 605 49 614 Q49 624 56 631 Q63 637 72 637 L128 637 Q140 637 148.5 645.5 Q157 654 157 666 L157 749 Q157 759 164 766 Q171 772 180 772 Q190 772 197 766 Q203 759 203 749 L203 666 Q203 654 211.5 645.5 Q220 637 232 637 L390 637 Q402 637 410.5 645.5 Q419 654 419 666 L419 794 ZM466 562 L466 287 Q466 263 484 246 Q500 229 523 229 L724 229 Q736 229 747 234 Q757 238 765 246 Q782 263 782 287 L782 562 Q782 574 773.5 582.5 Q765 591 753 591 L495 591 Q483 591 474.5 582.5 Q466 574 466 562 Z" /><glyph glyph-name="uni4ECA" unicode="&#x4eca;" d="M157 325 Q147 325 140 332 Q133 338 133 348 Q133 358 140 365 Q147 372 157 372 L736 372 Q768 372 790 356 Q802 348 810 337 Q817 325 822 312 Q830 285 824 259 Q816 227 790 204 L477 -65 Q469 -71 460 -71 Q450 -70 444 -62 Q437 -54 438 -45 Q439 -35 446 -29 L759 239 Q773 252 778 270 Q781 285 777 297 Q774 309 763 317 Q752 325 736 325 L157 325 ZM328 488 Q318 488 311 495 Q304 502 304 512 Q304 522 311 529 Q318 536 328 536 L670 536 Q680 536 687 529 Q694 522 694 512 Q694 502 687 495 Q680 488 670 488 L328 488 ZM81 464 Q74 457 65 457 Q55 457 48 464 Q33 481 48 498 L342 784 Q367 807 395 819 Q425 831 459 831 L539 832 Q571 832 602 819 Q617 813 630 804 L654 785 L656 783 L949 498 Q956 490 957 481 Q957 472 950 464 Q943 457 934 457 Q924 457 916 464 L623 750 Q604 767 584 776 Q562 784 539 784 L459 784 Q435 784 414 776 Q394 767 375 750 L81 464 Z" /><glyph glyph-name="uni4F60" unicode="&#x4f60;" d="M614 546 Q614 556 621 563 Q627 570 637 570 Q647 570 654 563 Q661 556 661 546 L661 61 Q661 24 646 0 Q630 -24 604 -38 Q581 -52 554 -58 Q527 -63 500 -65 Q490 -66 483 -60 Q476 -54 475 -45 L475 -41 Q475 -32 481 -26 Q487 -19 497 -18 Q520 -16 542 -12 Q564 -8 581 2 Q595 11 605 25 Q614 39 614 61 L614 546 ZM941 55 Q947 47 946 38 Q944 28 936 22 Q928 17 919 18 Q909 19 903 27 Q864 80 841 122 Q818 164 804 208 Q790 251 784 302 Q777 352 773 420 Q772 430 779 437 Q784 443 793 445 Q795 445 797 445 Q806 444 812 439 Q819 433 820 423 Q825 357 831 310 Q836 263 849 222 Q861 182 883 144 Q905 105 941 55 ZM366 27 Q361 19 351 18 Q341 17 333 22 Q325 28 324 38 Q323 47 328 55 Q365 105 387 144 Q408 182 421 222 Q433 263 439 310 Q445 357 450 423 Q450 433 458 439 Q464 444 473 445 Q475 445 477 445 Q486 443 491 437 Q497 430 497 420 Q492 351 486 302 Q480 252 466 208 Q452 164 429 122 Q405 80 366 27 ZM391 525 Q389 515 382 509 Q374 503 365 504 Q355 506 349 514 Q342 521 344 531 Q350 576 366 606 Q381 635 400 662 Q419 689 436 722 Q453 754 457 809 Q458 819 465 826 Q472 832 482 831 Q492 830 499 823 Q505 816 504 806 Q502 771 495 745 Q489 725 481 708 Q480 704 482 701 Q484 698 489 698 L864 698 Q876 698 889 693 Q906 685 919 670 Q920 668 921 665 L929 649 Q932 639 932 628 Q932 612 925 597 L893 519 Q889 510 880 506 Q871 502 862 506 Q853 510 849 519 Q845 528 849 537 L881 613 Q882 616 883 619 L883 622 Q884 623 883.5 628 Q883 633 882 635 Q882 636 879 640.5 Q876 645 875 645 L871 649 Q869 650 867 651 L455 651 Q450 651 447 647 L445 643 L439 635 Q423 612 410 587 Q396 562 391 525 ZM244 832 Q250 840 260 842 Q269 843 277 837 Q285 831 286 822 Q287 812 281 804 L93 556 Q87 548 85 540 Q85 539 85 535.5 Q85 532 85 531 L85 528 Q86 524 89 521 Q91 517 95 516 L100 514 Q103 513 106 513 L149 508 Q185 503 205 475 Q216 461 222 445 Q228 428 228 410 L228 -59 Q228 -69 221 -76 Q214 -83 204 -83 Q194 -83 188 -76 Q181 -69 181 -59 L180 410 Q180 431 168 446 Q158 459 144 461 L98 466 Q79 467 63 480 Q51 489 43 504 Q42 506 41 508 Q36 525 37 540 Q40 564 56 584 L244 832 Z" /><glyph glyph-name="uni52BF" unicode="&#x52bf;" d="M130 200 Q120 200 114 207 Q107 213 107 223 Q107 232 114 239 Q120 246 130 246 L355 246 Q364 246 370.5 252.5 Q377 259 377 269 L377 291 Q377 300 384 307 Q390 314 400 314 Q410 314 417 307 Q423 300 423 291 L423 269 Q423 259 429.5 252.5 Q436 246 446 246 L748 246 Q769 246 788 238 Q807 229 822 215 Q836 200 844 182 Q852 163 852 142 L852 61 Q852 21 825 -6 Q800 -32 758 -37 L697 -42 L667 -46 L637 -52 Q609 -58 575 -70 Q566 -74 558 -70 Q550 -66 547 -59 L545 -55 Q543 -47 546 -39 Q550 -30 559 -27 L594 -16 L627 -7 L660 -1 L693 4 L754 9 Q778 12 792 26 Q805 41 805 61 L805 142 Q805 164 789 183 Q780 191 770 196 Q759 200 748 200 L442 200 Q434 200 428.5 194.5 Q423 189 423 181 L423 162 Q423 119 390 84 Q357 49 306 20 Q259 -7 206 -29 Q153 -51 107 -68 Q98 -71 89 -67 Q81 -63 78 -56 L76 -52 Q74 -44 78 -37 Q82 -28 90 -25 Q135 -8 187 13 Q239 34 283 60 Q324 83 351 109 Q377 135 377 162 L377 181 Q377 189 371.5 194.5 Q366 200 358 200 L130 200 ZM650 448 Q659 445 663 436 Q667 427 664 418 Q661 409 652 405 Q643 401 634 404 Q605 415 586 428 Q572 438 560 448 Q557 451 552.5 450.5 Q548 450 545 447 Q525 419 500 394 Q471 364 441 340 Q433 334 424 335 Q414 336 408 344 Q403 352 404 361 Q404 370 412 376 Q442 399 470 429 Q494 454 513 482 Q519 491 511 499 Q499 512 486 524 Q467 539 438 550 Q429 553 425 562 Q422 569 424 577 L426 581 Q429 589 437 592 Q445 596 454 593 Q486 581 506 566 Q521 555 534 542 Q537 539 541 540 Q545 541 547 545 Q558 576 558 604 L558 657 Q558 669 549.5 677.5 Q541 686 529 686 L443 686 Q434 686 427 693 Q420 699 420 709 Q420 719 427 726 Q434 732 443 732 L529 732 Q541 732 549.5 740.5 Q558 749 558 761 L558 810 Q558 819 565 826 Q571 833 581 833 Q591 833 598 826 Q604 819 604 810 L604 761 Q604 749 612.5 740.5 Q621 732 633 732 L741 732 Q784 732 815 701 Q845 672 845 628 L845 439 Q845 414 860 399 L864 396 Q878 381 902 381 L929 381 Q939 381 946 375 Q952 368 952 358 Q952 348 946 342 Q939 335 929 335 L902 335 Q881 335 862 343 Q843 351 829 365 Q815 379 807 398 Q798 417 798 439 L798 628 Q798 652 782 669 Q766 686 741 686 L633 686 Q621 686 612.5 677.5 Q604 669 604 657 L604 604 Q604 555 580 505 Q576 497 582 491 Q594 480 607 470 Q624 457 650 448 ZM210 810 Q210 819 217 826 Q223 833 233 833 Q242 833 249 826 Q256 819 256 810 L256 761 Q256 749 264.5 740.5 Q273 732 285 732 L349 732 Q359 732 366 726 Q372 719 372 709 Q372 699 366 693 Q359 686 349 686 L285 686 Q273 686 264.5 677.5 Q256 669 256 657 L256 554 Q256 544 265 546 Q280 549 296 555 Q315 563 335 580 Q343 586 352 586 Q361 585 368 577 Q374 569 374 560 Q373 551 365 545 Q336 521 309 511 Q289 503 269 499 Q264 498 260 493.5 Q256 489 256 484 L256 441 Q256 421 249 404 Q242 386 231 372 Q219 358 203 349 Q187 340 167 338 L95 330 L91 330 Q83 329 77 334 Q70 339 68 348 L68 352 Q67 361 72 367 Q77 373 86 375 Q86 375 87.5 375.5 Q89 376 89 376 L162 384 Q182 387 195 402 Q209 419 209 441 L209 489 Q209 494 204 494 L199 494 Q172 493 146 491 Q120 488 96 473 Q88 468 79 471 Q69 473 64 481 Q59 489 62 499 Q64 508 72 513 Q104 532 135 536 Q166 539 198 540 L204 540 Q210 540 210 546 L210 657 Q210 669 201.5 677.5 Q193 686 181 686 L86 686 Q76 686 70 693 Q63 699 63 709 Q63 719 70 726 Q76 732 86 732 L181 732 Q193 732 201.5 740.5 Q210 749 210 761 L210 810 Z" /><glyph glyph-name="uni535A" unicode="&#x535a;" d="M418 505 L583 505 Q595 505 603.5 513.5 Q612 522 612 534 L612 548 Q612 560 603.5 568.5 Q595 577 583 577 L468 577 Q445 577 428 560 Q411 543 411 519 L411 512 Q411 505 418 505 ZM70 518 Q60 518 53 525 Q46 531 46 541 Q46 551 53 558 Q60 564 70 564 L120 564 Q132 564 140.5 572.5 Q149 581 149 593 L149 805 Q149 815 156 822 Q163 828 172 828 Q182 828 189 822 Q196 815 196 805 L196 593 Q196 581 204.5 572.5 Q213 564 225 564 L281 564 Q291 564 298 558 Q304 551 304 541 Q304 531 298 525 Q291 518 281 518 L225 518 Q213 518 204.5 509.5 Q196 501 196 489 L196 -44 Q196 -54 189 -61 Q182 -67 172 -67 Q163 -67 156 -61 Q149 -54 149 -44 L149 489 Q149 501 140.5 509.5 Q132 518 120 518 L70 518 ZM822 778 L822 809 Q822 818 829 825 Q835 832 845 832 Q855 832 862 825 Q868 818 868 809 L868 778 Q868 766 876.5 757.5 Q885 749 897 749 L927 749 Q937 749 944 742 Q950 735 950 725 Q950 716 944 709 Q937 702 927 702 L687 702 Q675 702 666.5 693.5 Q658 685 658 673 L658 652 Q658 640 666.5 631.5 Q675 623 687 623 L801 623 Q823 623 842 615 Q860 606 875 592 Q889 578 897 559 Q905 540 905 519 L905 273 Q905 263 899 257 Q892 250 882 250 Q872 250 866 257 Q859 263 859 273 L859 519 Q859 531 855 542 Q850 552 842 560 Q834 568 824 573 Q813 577 801 577 L687 577 Q675 577 666.5 568.5 Q658 560 658 548 L658 534 Q658 522 666.5 513.5 Q675 505 687 505 L794 505 Q804 505 811 499 Q817 492 817 482 Q817 472 811 466 Q804 459 794 459 L687 459 Q675 459 666.5 450.5 Q658 442 658 430 L658 421 Q658 409 666.5 400.5 Q675 392 687 392 L794 392 Q804 392 811 385 Q817 378 817 368 Q817 359 811 352 Q804 345 794 345 L687 345 Q675 345 666.5 336.5 Q658 328 658 316 L658 273 Q658 263 651 257 Q644 250 635 250 Q625 250 619 257 Q612 263 612 273 L612 316 Q612 328 603.5 336.5 Q595 345 583 345 L440 345 Q428 345 419.5 336.5 Q411 328 411 316 L411 273 Q411 263 404 257 Q397 250 387 250 Q378 250 371 257 Q364 263 364 273 L364 519 Q364 541 373 560 Q381 578 395 592 Q409 606 428 615 Q447 623 468 623 L583 623 Q595 623 603.5 631.5 Q612 640 612 652 L612 673 Q612 685 603.5 693.5 Q595 702 583 702 L342 702 Q333 702 326 709 Q319 716 319 725 Q319 735 326 742 Q333 749 342 749 L583 749 Q595 749 603.5 757.5 Q612 766 612 778 L612 811 Q612 820 619 827 Q625 834 635 834 Q644 834 651 827 Q658 820 658 811 L658 778 Q658 766 666.5 757.5 Q675 749 687 749 L793 749 Q805 749 813.5 757.5 Q822 766 822 778 ZM586 5 Q594 0 597 -9 Q600 -18 596 -26 Q591 -35 582 -38 Q573 -41 564 -36 L398 52 Q389 56 386 65 Q383 74 388 83 Q393 91 402 94 Q411 97 419 92 L586 5 ZM805 241 Q805 251 812 258 Q819 264 829 264 Q838 264 845 258 Q852 251 852 241 L852 214 Q852 202 860 194 Q868 186 880 186 L930 186 Q940 186 947 180 Q953 173 953 163 Q953 153 947 147 Q940 140 930 140 L881 140 Q869 140 860.5 131.5 Q852 123 852 111 L852 56 Q852 18 829 -10 Q818 -24 803 -33 Q788 -42 769 -45 L747 -48 L725 -50 L688 -54 Q669 -56 649 -66 Q640 -71 631 -68 Q623 -65 619 -58 L617 -54 Q613 -47 616 -39 Q619 -30 627 -25 Q653 -11 676 -8 Q699 -5 722 -4 L743 -3 L758 0 Q761 0 764 1 L774 5 Q775 5 779 7 Q783 9 784 10 L791 16 Q793 18 794 20 Q805 35 805 56 L805 111 Q805 123 796.5 131.5 Q788 140 776 140 L339 140 Q330 140 323 147 Q316 153 316 163 Q316 173 323 180 Q330 186 339 186 L778 186 Q789 186 797 194 Q805 202 805 214 L805 241 ZM440 392 L583 392 Q595 392 603.5 400.5 Q612 409 612 421 L612 430 Q612 442 603.5 450.5 Q595 459 583 459 L440 459 Q428 459 419.5 450.5 Q411 442 411 430 L411 421 Q411 409 419.5 400.5 Q428 392 440 392 Z" /><glyph glyph-name="uni53CB" unicode="&#x53cb;" d="M737 482 Q758 482 775 476 Q791 470 803 460 Q814 450 821 438 Q828 425 832 411 Q838 385 831 357 Q821 317 791 296 Q753 271 715 250 Q680 230 645 211 Q639 208 646 204 L653 200 L666 191 Q738 143 803 91 Q868 38 937 -20 Q945 -27 946 -36 Q946 -45 940 -53 Q933 -61 924 -62 Q915 -62 907 -56 Q839 2 775 54 Q710 106 640 152 L617 168 L604 175 Q600 178 592 178.5 Q584 179 579 176 Q542 156 506 136 Q462 111 419 82 Q375 53 332 19 Q288 -16 243 -60 Q236 -67 227 -67 Q217 -67 210 -60 Q204 -53 204 -44 Q204 -34 211 -27 Q254 15 297 49 Q339 83 381 112 Q422 140 464 164 Q495 182 525 199 Q533 203 533 210.5 Q533 218 525 221 Q484 244 439 265 Q383 290 317 313 Q308 316 304 325 Q300 332 302 340 Q303 342 304 344 Q308 352 316 355 Q324 359 333 356 Q408 330 472 300 Q528 274 579 244 Q584 242 594 241.5 Q604 241 609 244 Q644 263 680 283 Q722 307 766 335 Q781 346 786 368 Q790 382 787 398 Q787 400 786 402 Q782 414 776 422 Q775 423 772.5 425 Q770 427 769 427 L760 432 Q758 433 756 434 Q748 436 737 436 L309 436 Q304 436 297.5 432 Q291 428 289 423 Q280 404 270 386 L244 336 L204 259 Q183 220 165 177 Q146 133 130 85 Q113 36 100 -21 Q98 -30 90 -35 Q82 -40 72 -38 Q63 -36 58 -28 Q53 -20 55 -11 Q68 48 85 99 Q102 149 122 194 Q141 238 162 279 Q182 319 203 358 Q239 426 273 496 Q299 552 319 620 Q324 635 315.5 645 Q307 655 292 655 L87 655 Q77 655 70 662 Q63 668 63 678 Q63 688 70 695 Q77 701 87 701 L316 701 Q326 701 334.5 708 Q343 715 344 725 L350 752 Q354 777 357 805 Q358 815 366 821 Q372 826 380 825 L384 825 Q393 823 398 817 Q404 809 403 800 L396 749 L392 725 Q390 715 395.5 708 Q401 701 411 701 L927 701 Q937 701 944 695 Q950 688 950 678 Q950 668 944 662 Q937 655 927 655 L400 655 Q391 655 382.5 648.5 Q374 642 371 633 Q362 596 350 564 Q338 531 325 501 Q322 493 326 487.5 Q330 482 338 482 L737 482 Z" /><glyph glyph-name="uni559C" unicode="&#x559c;" d="M106 205 Q96 205 89 212 Q82 218 82 228 Q82 237 89 244 Q96 251 106 251 L248 251 Q251 251 251.5 254.5 Q252 258 250 260 Q228 274 203 293 Q195 299 195 308 Q194 317 199 325 Q205 333 215 334 Q224 335 232 329 Q252 312 271 300 Q289 288 309 279 Q347 261 396 252 Q398 251 401 251 L600 251 Q603 251 606 252 Q657 262 692 279 Q712 288 731 300 Q749 312 770 329 Q777 335 787 334 Q796 333 802 325 Q808 317 807 308 Q806 299 798 293 L768 270 Q757 262 745 255 Q744 255 744 253 Q744 251 746 251 L896 251 Q906 251 913 244 Q919 237 919 228 Q919 218 913 212 Q906 205 896 205 L106 205 ZM806 131 Q806 140 813 147 Q819 154 829 154 Q839 154 846 147 Q852 140 852 131 L852 37 Q852 -3 823 -33 Q793 -61 754 -61 L248 -61 Q207 -61 178 -32 Q164 -18 157 -1 Q149 17 149 37 L149 131 Q149 140 156 147 Q163 154 173 154 Q182 154 189 147 Q196 140 196 131 L196 125 Q196 119 202 119 L800 119 Q806 119 806 125 L806 131 ZM788 73 L214 73 Q207 73 201.5 67.5 Q196 62 196 55 L196 37 Q196 17 211 0 Q226 -15 248 -15 L754 -15 Q773 -15 790 0 Q806 16 806 37 L806 55 Q806 62 800.5 67.5 Q795 73 788 73 ZM797 524 Q797 534 804 541 Q810 547 820 547 Q830 547 837 541 Q843 534 843 524 L843 445 Q843 409 817 383 Q790 358 756 358 L245 358 Q227 358 212 365 Q196 372 184 383 Q159 408 159 445 L159 524 Q159 534 166 541 Q172 547 182 547 Q191 547 198 541 Q205 534 205 524 L205 521 Q205 518 208 518 L794 518 Q797 518 797 521 L797 524 ZM784 472 L219 472 Q205 472 205 459 L205 445 Q205 427 215 417 L219 414 Q230 404 245 404 L756 404 Q773 404 785 416 Q797 428 797 445 L797 459 Q797 472 784 472 ZM478 667 L478 694 Q478 706 469.5 714.5 Q461 723 449 723 L106 723 Q96 723 89 730 Q82 736 82 746 Q82 756 89 763 Q96 769 106 769 L457 769 Q465 769 471.5 775.5 Q478 782 478 791 L478 812 Q478 822 485 829 Q491 835 501 835 Q510 835 517 829 Q524 822 524 812 L524 791 Q524 782 530.5 775.5 Q537 769 546 769 L896 769 Q906 769 913 763 Q919 756 919 746 Q919 736 913 730 Q906 723 896 723 L553 723 Q541 723 532.5 714.5 Q524 706 524 694 L524 667 Q524 655 532.5 646.5 Q541 638 553 638 L855 638 Q865 638 872 631 Q878 624 878 614 Q878 605 872 598 Q865 591 855 591 L146 591 Q137 591 130 598 Q123 605 123 614 Q123 624 130 631 Q137 638 146 638 L449 638 Q461 638 469.5 646.5 Q478 655 478 667 Z" /><glyph glyph-name="uni597D" unicode="&#x597d;" d="M492 384 Q482 384 475 391 Q468 398 468 408 Q468 418 475 425 Q482 432 492 432 L710 432 Q725 432 727 447 L728 461 L729 463 L735 492 Q745 527 767 565 L864 725 Q866 728 867 731 Q868 734 867 737 Q866 740 864 743 Q862 745 858 746 Q858 746 856 746 Q854 746 854 746 L518 746 Q508 746 501 753 Q494 760 494 770 Q494 780 501 787 Q508 793 518 793 L856 793 Q874 793 886 785 Q899 778 906 765 L908 761 Q915 750 915 733 Q915 717 906 704 L808 541 Q791 514 781 481 L780 478 L776 456 L774 444 Q772 432 784 432 L941 432 Q951 432 958 425 Q965 418 965 408 Q965 398 958 391 Q951 384 941 384 L801 384 Q789 384 780.5 375.5 Q772 367 772 355 L772 46 Q772 7 747 -23 Q722 -53 682 -59 L559 -77 Q549 -79 542 -73 Q534 -67 532 -57 Q530 -47 536 -40 Q542 -32 552 -31 L676 -12 Q696 -9 709 5 Q711 7 712 10 L720 23 Q720 24 721 25.5 Q722 27 722 27 Q725 36 725 46 L725 355 Q725 367 716.5 375.5 Q708 384 696 384 L492 384 ZM104 813 Q104 823 111 830 Q117 836 127 836 Q137 836 144 830 Q151 823 151 813 L151 695 Q151 683 159.5 674.5 Q168 666 180 666 L280 666 Q304 666 326 658 Q347 650 364 636 Q381 622 391 603 Q400 583 400 560 L400 382 Q400 345 391 315 Q382 285 367 259 Q351 233 331 210 Q311 187 288 165 Q286 163 289 161 L293 157 Q340 111 382 63 Q425 13 445 -50 Q448 -59 444 -68 Q439 -77 430 -79 Q420 -82 412 -78 Q403 -73 400 -64 Q383 -10 343 36 Q303 81 258 125 L255 128 Q252 131 250 129 Q210 91 171 46 Q130 -1 104 -66 Q100 -75 92 -79 Q83 -83 73 -79 Q64 -75 61 -66 Q57 -57 60 -48 Q89 23 132 73 Q169 116 206 151 Q211 156 211.5 163.5 Q212 171 208 176 Q190 194 175 213 Q154 237 138 264 Q122 290 113 320 Q104 349 104 382 L104 607 Q104 619 92 619 L79 619 Q69 619 62 626 Q55 632 55 642 Q55 652 62 659 Q69 666 79 666 L92 666 Q104 666 104 679 L104 813 ZM151 590 L151 382 Q151 329 181 284 Q207 245 243 207 Q253 196 263 206 Q278 222 292 238 Q310 258 324 280 Q337 302 345 327 Q353 352 353 382 L353 560 Q353 583 333 600 Q323 608 310 614 Q296 619 280 619 L180 619 Q168 619 159.5 610.5 Q151 602 151 590 Z" /><glyph glyph-name="uni5BA2" unicode="&#x5ba2;" d="M759 206 Q759 216 766 223 Q773 229 782 229 Q792 229 799 223 Q805 216 805 206 L805 45 Q805 1 775 -29 Q745 -59 701 -59 L304 -59 Q260 -59 230 -29 Q200 1 200 45 L200 206 Q200 216 207 223 Q213 229 223 229 Q232 229 239 223 Q246 216 246 206 L246 201 Q246 195 252 195 L754 195 Q759 195 759 201 L759 206 ZM186 442 Q183 435 175 431 Q166 427 157 431 Q148 435 145 444 Q141 452 144 461 Q157 491 172 511 Q186 530 202 547 L216 563 L228 577 Q229 579 231 582 L246 609 Q254 624 260 645 L262 649 Q264 657 272 661 Q279 664 287 663 L291 661 Q300 659 304 652 Q308 643 305 634 Q300 616 293 600 Q291 596 293 593 Q295 590 299 590 L718 590 Q741 590 757 580 Q773 570 782 555 Q792 539 793 523 Q794 507 791 492 Q791 492 790 490 Q789 488 789 488 Q783 473 772 462 Q759 450 739 445 Q663 430 588 409 Q586 409 585 406.5 Q584 404 587 403 L617 394 Q700 368 779 337 Q857 305 935 268 Q943 264 947 255 Q950 246 946 238 Q942 229 933 226 Q924 222 915 226 Q838 262 761 293 Q684 324 603 350 L549 366 L500 380 Q498 380 492 380 Q486 380 484 380 L451 370 L410 356 Q329 329 250 297 Q171 264 90 226 Q81 222 73 226 Q65 229 60 235 Q59 237 58 239 Q55 247 59 255 Q62 264 70 268 Q153 307 234 340 Q314 372 395 400 L400 402 Q401 402 402 403 Q403 404 402 404 Q334 418 264 430 Q255 431 249 439 Q243 446 245 456 Q247 465 255 471 Q262 477 271 475 Q381 457 486 431 Q487 431 492.5 431.5 Q498 432 500 433 Q553 448 608 462 Q667 477 729 491 Q742 494 745 503 Q746 505 746 508 L747 513 Q747 513 746.5 517.5 Q746 522 745 523 L744 528 Q743 532 741 534 Q733 543 718 543 L269 543 Q266 543 261 540.5 Q256 538 254 536 L248 529 L236 516 Q222 501 210 485 Q199 470 188 446 L186 442 ZM478 811 Q478 821 485 828 Q492 834 502 834 Q511 834 518 828 Q525 821 525 811 L525 776 Q525 764 533.5 755.5 Q542 747 554 747 L816 747 Q857 747 886 718 Q915 689 915 649 L915 613 Q915 603 908 597 Q901 590 892 590 Q882 590 875 597 Q868 603 868 613 L868 649 Q868 670 855 683 L852 687 Q838 701 816 701 L187 701 Q166 701 150 685 Q135 670 135 649 L135 613 Q135 603 128 597 Q121 590 112 590 Q102 590 96 597 Q89 603 89 613 L89 649 Q89 688 117 718 Q146 747 187 747 L449 747 Q461 747 469.5 755.5 Q478 764 478 776 L478 811 ZM730 148 L275 148 Q263 148 254.5 139.5 Q246 131 246 119 L246 45 Q246 20 261 5 L264 2 Q279 -13 304 -13 L701 -13 Q726 -13 741 2 L744 5 Q759 20 759 45 L759 119 Q759 131 750.5 139.5 Q742 148 730 148 Z" /><glyph glyph-name="uni5C0F" unicode="&#x5c0f;" d="M948 169 Q953 161 952 152 Q950 142 942 137 Q934 131 924 133 Q914 134 909 142 Q870 199 839 252 Q808 304 785 361 Q762 418 748 480 Q733 542 726 616 Q725 626 731 633 Q736 639 745 641 L749 641 Q758 642 765 637 Q772 630 773 620 Q779 550 793 492 Q807 433 829 379 Q851 325 881 274 Q910 223 948 169 ZM107 142 Q102 134 92 133 Q82 131 74 137 Q66 142 65 152 Q63 161 68 169 Q106 223 136 274 Q165 325 187 379 Q209 433 223 492 Q237 550 243 620 Q243 620 244 622 Q246 631 252 637 Q258 642 267 641 L271 641 Q280 639 285 633 Q291 626 290 616 Q283 542 269 480 Q254 418 231 361 Q208 304 177 252 Q146 199 107 142 ZM324 -64 Q314 -66 307 -60 Q299 -54 297 -44 Q295 -35 301 -27 Q306 -19 316 -17 L430 1 Q452 4 464 17 L466 21 Q478 33 478 53 L478 820 Q478 830 485 837 Q491 844 501 844 Q511 844 518 837 Q525 830 525 820 L525 53 Q525 14 500 -13 Q476 -40 437 -46 L324 -64 Z" /><glyph glyph-name="uni5EA6" unicode="&#x5ea6;" d="M315 252 Q305 252 298 259 Q291 265 291 275 Q291 285 298 292 Q305 298 315 298 L755 298 Q778 298 795 289 Q811 280 821 266 Q832 252 834 232 Q837 214 831 196 Q826 180 814 168 Q801 155 781 150 L711 130 L676 119 Q667 116 666.5 107 Q666 98 675 94 Q726 72 775 50 Q840 19 907 -16 Q915 -21 919 -30 Q922 -39 917 -47 Q912 -55 903 -59 Q894 -62 886 -57 Q820 -22 756 8 Q691 38 622 66 L598 76 L584 81 Q581 82 574 82 Q567 82 564 81 L545 75 L516 64 Q452 39 388 9 Q323 -21 254 -57 Q246 -62 237 -59 Q228 -55 223 -47 Q218 -39 221 -30 Q224 -21 233 -16 Q369 56 500 107 L504 109 Q508 110 504 112 Q463 127 420 141 L326 170 Q316 173 312 182 Q309 189 310 197 Q310 199 311 201 Q314 209 322 213 Q330 217 339 214 Q404 195 462 175 Q514 157 564 139 Q567 138 574.5 137.5 Q582 137 585 138 Q628 153 671 166 Q718 180 769 194 Q783 198 786 209 Q787 210 787 212 L788 219 Q788 220 787.5 225.5 Q787 231 787 233 L785 236 Q784 239 783 241 Q775 252 755 252 L315 252 ZM249 528 Q239 528 233 535 Q226 542 226 552 Q226 561 233 568 Q239 575 249 575 L334 575 Q344 575 350.5 581.5 Q357 588 357 598 L357 621 Q357 631 364 638 Q370 644 380 644 Q390 644 397 638 Q403 631 403 621 L403 598 Q403 588 409.5 581.5 Q416 575 426 575 L719 575 Q729 575 735.5 581.5 Q742 588 742 598 L742 621 Q742 631 749 638 Q756 644 765 644 Q775 644 782 638 Q789 631 789 621 L789 598 Q789 588 795.5 581.5 Q802 575 812 575 L896 575 Q906 575 913 568 Q919 561 919 552 Q919 542 913 535 Q906 528 896 528 L816 528 Q805 528 797 520 Q789 512 789 501 L789 474 Q789 453 781 435 Q773 416 759 402 Q744 387 725 379 Q706 370 684 370 L461 370 Q439 370 420 379 Q401 387 387 401 Q357 431 357 474 L357 501 Q357 512 349 520 Q341 528 330 528 L249 528 ZM715 528 L430 528 Q419 528 411 520 Q403 512 403 501 L403 474 Q403 450 418 436 L421 432 Q436 417 461 417 L684 417 Q710 417 726 435 Q742 451 742 474 L742 501 Q742 512 734 520 Q726 528 715 528 ZM234 686 Q210 686 193 669 Q176 652 176 628 L176 293 Q176 239 171 193 Q165 147 154 105 Q144 63 130 25 Q115 -13 95 -53 Q91 -62 82 -65 Q73 -68 65 -64 Q56 -59 53 -51 Q49 -42 54 -33 Q72 4 86 41 Q100 77 110 116 Q120 155 125 199 Q130 242 130 293 L130 628 Q130 671 160 701 Q174 715 193 724 Q212 732 234 732 L487 732 Q499 732 507.5 740.5 Q516 749 516 761 L516 812 Q516 821 523 828 Q529 835 539 835 Q549 835 556 828 Q562 821 562 812 L562 761 Q562 749 570.5 740.5 Q579 732 591 732 L904 732 Q914 732 921 726 Q927 719 927 709 Q927 700 921 693 Q914 686 904 686 L234 686 Z" /><glyph glyph-name="uni6001" unicode="&#x6001;" d="M934 -9 Q939 -17 938 -27 Q936 -36 928 -41 Q920 -46 911 -45 Q901 -43 896 -35 Q874 -3 860 28 Q846 58 835 90 Q826 122 820 158 Q813 193 807 237 Q806 246 812 254 Q817 260 825 262 Q827 263 829 263 Q838 263 844 258 Q851 252 853 243 Q859 201 865 167 Q871 133 880 103 Q896 47 934 -9 ZM592 95 Q598 87 597 78 Q596 68 588 63 Q580 57 571 58 Q561 59 555 67 Q528 104 514 147 Q499 189 495 248 Q494 258 501 265 Q507 272 516 273 Q526 274 533 268 Q540 261 541 252 Q543 225 548 203 Q552 181 558 161 Q570 125 592 95 ZM97 -36 Q91 -44 82 -45 Q73 -46 65 -40 Q57 -35 56 -26 Q55 -16 60 -8 Q101 47 120 105 Q130 135 135 169 Q140 202 140 240 Q140 250 147 257 Q154 263 163 263 Q173 263 180 256 Q186 249 186 240 Q186 156 164 90 Q142 24 97 -36 ZM749 -29 Q757 -34 759 -44 Q761 -53 756 -61 Q751 -69 742 -71 Q732 -73 724 -68 Q707 -57 683 -52 L662 -49 L659 -49 L638 -48 L409 -48 Q365 -48 335 -21 Q305 7 305 50 L305 237 Q305 246 312 253 Q318 260 328 260 Q338 260 345 253 Q351 246 351 237 L351 50 Q351 28 366 13 Q382 -2 409 -2 L638 -2 L663 -3 L667 -3 L693 -7 Q724 -13 749 -29 ZM561 366 Q567 361 571 354 Q574 346 571 338 Q570 336 569 334 Q564 328 557 325 Q548 321 539 325 Q518 335 503 346 Q487 356 474 369 Q461 382 451 397 L431 429 Q426 437 429 446 Q432 455 440 460 Q448 465 457 462 Q466 459 471 451 Q487 421 505 403 L507 401 L530 384 Q541 376 557 368 Q559 367 561 366 ZM524 566 Q517 573 517 583 Q517 592 525 599 Q532 606 542 606 Q551 605 557 598 Q600 553 643 516 Q685 479 731 449 Q776 419 825 394 Q874 369 930 347 Q939 343 943 335 Q946 327 945 319 Q944 317 943 315 Q939 308 932 304 Q923 300 914 304 Q855 327 804 353 Q753 379 705 411 Q657 443 613 481 Q569 518 524 566 ZM476 811 Q476 820 483 827 Q490 834 499 834 Q509 834 516 827 Q522 820 522 811 L522 743 Q522 731 530.5 722.5 Q539 714 551 714 L899 714 Q909 714 916 707 Q922 700 922 691 Q922 681 916 675 Q909 668 899 668 L540 668 Q534 668 528 662 Q522 656 521 650 Q517 623 501 596 Q479 561 444 528 Q408 494 363 463 Q318 431 271 403 Q223 375 177 351 L94 308 L89 306 L85 304 Q78 300 70 304 Q61 307 56 315 Q51 323 55 332 Q58 341 66 346 L73 350 L151 390 Q194 412 239 438 Q284 463 327 492 Q369 520 402 550 Q435 579 456 609 Q471 631 475 653 Q477 667 461 668 L100 668 Q90 668 83 675 Q76 681 76 691 Q76 700 83 707 Q90 714 100 714 L447 714 Q459 714 467.5 722.5 Q476 731 476 743 L476 811 Z" /><glyph glyph-name="uni6211" unicode="&#x6211;" d="M498 8 Q493 0 484 -2 Q474 -3 466 3 Q458 8 457 18 Q455 27 460 35 Q482 66 507 89 Q531 112 557 130 Q582 148 609 162 L643 180 Q650 183 652.5 191.5 Q655 200 651 208 Q638 235 629 262 Q616 299 616 337 L616 472 Q616 484 607.5 492.5 Q599 501 587 501 L341 501 Q329 501 320.5 492.5 Q312 484 312 472 L312 286 Q312 278 317 274.5 Q322 271 329 272 Q354 277 380 287 Q415 300 456 330 Q464 336 473 335 Q482 334 488 326 Q494 318 493 309 Q491 299 483 293 Q434 256 392 242 Q361 232 331 226 Q324 225 318 218 Q312 211 312 204 L312 59 Q312 22 288 -5 Q265 -31 227 -37 L128 -54 Q118 -56 111 -51 Q103 -45 101 -36 Q99 -26 105 -19 Q111 -11 120 -9 L219 8 Q242 13 254 26 Q266 40 266 59 L266 213 Q266 218 261 218 L256 218 Q215 216 175 209 Q134 201 88 171 Q80 166 71 168 Q62 169 56 177 Q51 185 53 195 Q55 204 63 209 Q90 227 115 237 Q139 247 163 253 Q186 258 209 260 L254 264 L260 265 Q266 265 266 271 L266 472 Q266 484 257.5 492.5 Q249 501 237 501 L78 501 Q68 501 62 508 Q55 514 55 524 Q55 533 62 540 Q68 547 78 547 L237 547 Q249 547 257.5 555.5 Q266 564 266 576 L266 698 Q266 710 257.5 718.5 Q249 727 237 727 L109 727 Q100 727 93 734 Q86 740 86 750 Q86 760 93 767 Q100 773 109 773 L309 773 Q341 773 368 779 L396 787 Q409 792 423 800 Q431 805 440 802 Q449 799 454 790 Q459 782 456 773 Q453 764 445 759 Q412 742 378 734 Q356 729 329 727 Q322 727 317 721.5 Q312 716 312 709 L312 576 Q312 564 320.5 555.5 Q329 547 341 547 L587 547 Q599 547 607.5 555.5 Q616 564 616 576 L616 811 Q616 821 623 828 Q629 834 639 834 Q649 834 656 828 Q662 821 662 811 L662 710 Q662 699 669.5 693 Q677 687 687 691 Q725 703 756 720 Q781 733 803 750 Q825 767 846 789 Q853 796 863 796 Q872 796 879 790 Q886 783 886 774 Q886 764 879 757 Q831 708 778 679 Q752 665 724 655 Q702 647 678 640 Q672 638 667 631.5 Q662 625 662 618 L662 576 Q662 564 670.5 555.5 Q679 547 691 547 L931 547 Q941 547 948 540 Q954 533 954 524 Q954 514 948 508 Q941 501 931 501 L691 501 Q679 501 670.5 492.5 Q662 484 662 472 L662 337 Q662 305 673 273 Q682 247 696 221 Q703 209 715 215 Q735 226 754 238 Q778 253 801 274 Q823 294 842 322 Q861 349 876 387 Q880 396 889 400 Q897 404 906 400 Q915 396 919 388 Q922 379 919 370 Q902 327 881 296 Q859 265 835 242 Q810 219 783 202 Q758 186 732 172 Q728 170 731 166 L734 162 Q758 129 787 100 Q815 70 843 46 Q870 21 895 3 Q919 -16 937 -27 Q945 -32 947 -42 Q949 -51 944 -59 Q939 -67 930 -70 Q921 -72 913 -67 Q894 -55 868 -36 Q841 -16 812 11 Q783 37 753 68 Q723 99 697 134 L692 142 L689 146 Q686 150 681 148 L636 125 Q611 112 587 96 Q563 79 541 58 Q518 36 498 8 Z" /><glyph glyph-name="uni62DF" unicode="&#x62df;" d="M750 805 Q750 815 757 822 Q763 828 773 828 Q783 828 790 822 Q797 815 797 805 L797 480 Q797 402 779 321 Q761 240 735 165 Q709 92 683 33 Q658 -26 641 -60 Q640 -62 639 -64 Q634 -70 626 -74 Q617 -77 609 -73 Q600 -68 597 -59 Q593 -50 598 -41 Q614 -8 640 51 Q665 109 690 181 Q715 252 733 330 Q750 407 750 480 L750 805 ZM173 816 Q173 826 180 833 Q186 840 196 840 Q206 840 213 833 Q220 826 220 816 L220 704 Q220 692 228.5 683.5 Q237 675 249 675 L303 675 Q313 675 320 668 Q326 661 326 651 Q326 641 320 635 Q313 628 303 628 L249 628 Q237 628 228.5 619.5 Q220 611 220 599 L220 372 Q220 368 223 366.5 Q226 365 230 367 Q244 376 257 389 Q274 405 288 439 Q292 448 301 452 Q310 455 319 451 Q328 447 332 439 Q336 430 332 421 Q321 394 309 376 Q296 357 282 345 Q268 333 253 325 L236 316 Q230 313 225 305 Q220 297 220 290 L220 68 Q220 -9 177 -47 Q157 -65 128 -74 Q99 -83 62 -85 Q52 -86 45 -80 Q38 -73 37 -63 Q36 -53 43 -46 Q49 -39 59 -38 Q88 -36 110 -30 Q132 -24 146 -11 Q173 11 173 68 L173 271 Q173 276 169 278 Q165 280 161 277 L149 270 Q136 261 125 249 Q113 236 103 219 Q93 201 86 176 Q83 167 75 163 Q66 158 57 160 Q47 163 43 172 Q38 180 41 190 Q51 226 66 250 Q81 274 98 290 Q115 306 133 317 L168 335 L171 337 Q173 338 173 341 L173 599 Q173 611 164.5 619.5 Q156 628 144 628 L61 628 Q51 628 45 635 Q38 641 38 651 Q38 661 45 668 Q51 675 61 675 L144 675 Q156 675 164.5 683.5 Q173 692 173 704 L173 816 ZM783 274 Q781 284 786 293 Q791 301 801 303 Q810 305 819 300 Q827 295 829 285 Q840 240 852 199 Q864 157 879 117 Q910 35 949 -40 Q954 -49 951 -58 Q947 -67 939 -72 Q930 -77 921 -74 Q912 -71 907 -62 Q865 17 835 100 Q819 142 807 186 Q794 229 783 274 ZM655 420 Q659 413 656 405 Q652 396 644 391 Q635 386 626 389 Q617 392 612 401 Q573 479 551 557 Q529 635 523 727 Q522 737 528 744 Q534 751 544 752 Q554 753 562 747 Q569 740 570 730 Q573 685 580 646 Q586 607 596 569 Q607 531 621 496 Q635 461 653 424 L655 420 ZM379 767 Q379 777 386 784 Q393 790 403 790 Q413 790 420 784 Q427 777 427 767 L427 75 Q427 72 428 69 L429 66 Q429 64 431.5 60 Q434 56 435 55 Q436 53 440.5 51 Q445 49 447 49 L451 49 Q455 48 459 50 Q463 51 466 54 L541 134 Q548 141 558 142 Q567 142 574 135 Q582 128 582 119 Q582 109 575 102 L497 19 Q482 3 460 1 Q441 -2 420 8 Q401 17 390 34 Q379 51 379 72 L379 767 Z" /><glyph glyph-name="uni65D7" unicode="&#x65d7;" d="M760 41 Q754 49 755 59 Q756 68 764 74 Q772 80 782 79 Q791 78 797 70 Q810 54 826 40 Q841 26 858 13 Q894 -13 937 -31 Q946 -35 950 -44 Q954 -53 950 -62 Q946 -71 937 -75 Q928 -79 919 -75 L874 -52 Q851 -40 830 -25 Q789 5 760 41 ZM585 70 Q591 78 601 79 Q610 80 618 74 Q626 68 627 59 Q628 49 622 41 Q593 5 552 -25 Q532 -40 510 -52 Q487 -64 463 -75 Q454 -79 446 -75 Q437 -71 433 -62 Q429 -53 433 -44 Q436 -35 445 -31 Q486 -13 525 13 Q542 26 557 40 Q572 54 585 70 ZM456 588 Q454 578 447 572 Q439 566 429 568 Q419 570 413 578 Q407 585 409 595 Q414 633 429 658 Q443 682 460 705 L477 728 Q485 739 492 753 Q499 767 504 784 Q508 801 510 823 Q511 833 518 839 Q525 845 535 844 Q545 843 552 836 Q558 829 557 819 Q554 782 544 754 Q542 748 545.5 742.5 Q549 737 555 737 L936 737 Q946 737 953 730 Q960 723 960 713 Q960 703 953 696 Q946 689 936 689 L512 689 Q508 689 506 686 L503 683 L498 676 Q484 657 472 637 Q460 617 456 588 ZM598 298 L748 298 Q758 298 765 291 Q772 284 772 274 Q772 264 765 257 Q758 250 748 250 L598 250 Q586 250 577.5 241.5 Q569 233 569 221 L569 190 Q569 178 577.5 169.5 Q586 161 598 161 L784 161 Q796 161 804.5 169.5 Q813 178 813 190 L813 490 Q813 502 804.5 510.5 Q796 519 784 519 L598 519 Q586 519 577.5 510.5 Q569 502 569 490 L569 458 Q569 446 577.5 437.5 Q586 429 598 429 L748 429 Q758 429 765 423 Q772 416 772 406 Q772 396 765 389 Q758 382 748 382 L598 382 Q586 382 577.5 373.5 Q569 365 569 353 L569 327 Q569 315 577.5 306.5 Q586 298 598 298 ZM460 114 Q450 114 444 121 Q437 127 437 137 Q437 147 444 154 Q450 161 460 161 L493 161 Q505 161 513.5 169.5 Q522 178 522 190 L522 495 Q522 505 515 512 Q508 519 498 519 L474 519 Q464 519 457 526 Q450 532 450 543 Q450 553 457 560 Q464 566 474 566 L498 566 Q508 566 515 573 Q522 580 522 590 L522 620 Q522 630 529 637 Q536 644 546 644 Q556 644 563 637 Q569 630 569 620 L569 593 Q569 582 577 574 Q585 566 596 566 L786 566 Q797 566 805 574 Q813 582 813 593 L813 620 Q813 630 820 637 Q827 644 837 644 Q847 644 854 637 Q860 630 860 620 L860 591 Q860 580 867 573 Q874 566 885 566 L909 566 Q919 566 926 560 Q932 553 932 543 Q932 532 926 526 Q919 519 909 519 L885 519 Q874 519 867 512 Q860 505 860 495 L860 190 Q860 178 868.5 169.5 Q877 161 889 161 L922 161 Q932 161 939 154 Q946 147 946 137 Q946 127 939 121 Q932 114 922 114 L460 114 ZM189 460 L267 460 Q312 460 342 428 Q373 399 373 353 L373 50 Q373 13 351 -14 Q327 -41 291 -48 L273 -52 Q273 -52 271 -52.5 Q269 -53 269 -53 L260 -56 L252 -60 Q243 -65 236 -73 Q229 -81 220 -81 Q210 -81 202 -74 Q195 -68 195 -59 Q194 -50 200 -43 Q201 -41 202 -40 L213 -30 L215 -28 L226 -20 Q227 -20 228.5 -19 Q230 -18 230 -18 Q248 -9 261 -6 L281 -2 Q302 3 315 17 Q326 30 326 50 L326 353 Q326 378 309 395 Q292 412 267 412 L189 412 Q177 412 168.5 403.5 Q160 395 160 383 L160 338 Q160 293 154 245 Q148 196 139 148 Q128 88 114 33 Q99 -22 85 -61 Q82 -70 73 -74 Q64 -78 55 -75 Q46 -72 42 -63 Q37 -54 40 -45 Q54 -7 68 46 Q82 98 93 156 Q102 203 108 250 Q113 296 113 338 L113 642 Q113 651 106.5 657.5 Q100 664 91 664 L69 664 Q59 664 53 671 Q46 677 46 687 Q46 697 53 704 Q59 711 69 711 L169 711 Q181 711 189.5 719.5 Q198 728 198 740 L198 820 Q198 830 205 837 Q212 844 222 844 Q232 844 239 837 Q246 830 246 820 L246 740 Q246 728 254.5 719.5 Q263 711 275 711 L374 711 Q384 711 391 704 Q398 697 398 687 Q398 677 391 671 Q384 664 374 664 L189 664 Q177 664 168.5 655.5 Q160 647 160 635 L160 489 Q160 477 168.5 468.5 Q177 460 189 460 Z" /><glyph glyph-name="uni65E5" unicode="&#x65e5;" d="M800 773 Q800 783 807 790 Q814 797 824 797 Q833 797 840 790 Q847 783 847 773 L847 50 Q847 28 839 9 Q830 -10 816 -24 Q786 -54 743 -54 L256 -54 Q213 -54 183 -24 Q169 -10 161 9 Q152 28 152 50 L152 773 Q152 783 159 790 Q165 797 175 797 Q185 797 192 790 Q198 783 198 773 L198 765 Q198 756 207 756 L792 756 Q800 756 800 765 L800 773 ZM227 377 L719 377 Q729 377 736 370 Q743 363 743 354 Q743 344 736 338 Q729 331 719 331 L227 331 Q215 331 206.5 322.5 Q198 314 198 302 L198 50 Q198 38 203 28 Q207 17 215 9 Q232 -8 256 -8 L743 -8 Q767 -8 781 7 L785 10 Q800 25 800 50 L800 681 Q800 693 791.5 701.5 Q783 710 771 710 L227 710 Q215 710 206.5 701.5 Q198 693 198 681 L198 406 Q198 394 206.5 385.5 Q215 377 227 377 Z" /><glyph glyph-name="uni67AB" unicode="&#x67ab;" d="M520 59 Q517 49 509 45 Q500 40 491 43 Q481 46 477 55 Q472 63 475 72 Q498 148 525 218 Q551 287 583 353 L600 387 L610 406 Q612 411 612.5 419.5 Q613 428 610 433 Q564 512 501 584 Q495 592 496 602 Q496 611 504 617 Q512 624 522 623 Q531 622 537 615 Q568 579 595 542 Q614 514 632 486 Q636 480 643.5 479 Q651 478 655 485 Q694 548 741 613 Q746 621 756 623 Q766 624 774 618 Q782 613 783 603 Q784 593 779 585 Q748 543 722 503 Q700 469 679 435 Q677 430 676.5 420.5 Q676 411 679 406 L687 391 L702 361 Q734 294 759 223 Q783 151 804 72 Q806 62 802 54 Q798 46 789 44 L785 42 Q777 41 770 45 Q761 50 759 60 Q739 137 715 207 Q690 276 659 341 L652 356 L648 363 Q644 370 640 363 L635 352 L626 332 Q594 267 569 200 Q543 133 520 59 ZM238 548 Q259 532 273 510 Q291 481 301 444 Q311 407 316 366 Q321 325 324 283 Q329 229 335 181 Q341 133 360 104 Q365 96 363 87 Q361 77 353 72 Q345 67 336 69 Q326 71 320 79 Q297 115 290 168 Q282 221 277 280 L271 342 Q268 373 263 402 Q257 430 248 455 Q241 473 231 487 Q230 490 227.5 489 Q225 488 225 485 L225 -54 Q225 -64 219 -71 Q212 -78 201 -78 Q191 -78 185 -71 Q178 -64 178 -54 L178 485 Q178 488 175.5 489 Q173 490 172 487 Q162 473 155 455 Q146 430 141 402 Q135 373 132 342 L126 280 Q121 221 114 168 Q106 115 82 79 Q77 71 68 69 Q58 67 50 72 Q42 77 40 87 Q38 96 43 104 Q61 133 68 181 Q74 229 79 283 Q82 325 87 366 Q92 407 102 444 Q112 481 130 510 Q144 532 165 548 Q168 551 173 560 Q178 569 178 573 L178 595 Q178 607 169.5 615.5 Q161 624 149 624 L68 624 Q58 624 52 631 Q45 637 45 647 Q45 657 52 664 Q58 671 68 671 L149 671 Q161 671 169.5 679.5 Q178 688 178 700 L178 817 Q178 827 185 834 Q191 841 201 841 Q212 841 219 834 Q225 827 225 817 L225 700 Q225 688 233.5 679.5 Q242 671 254 671 L334 671 Q344 671 351 664 Q358 657 358 647 Q358 637 351 631 Q344 624 334 624 L254 624 Q242 624 233.5 615.5 Q225 607 225 595 L225 573 Q225 569 230 560 Q235 551 238 548 ZM391 -63 Q388 -73 379 -77 Q371 -81 363 -79 Q361 -78 359 -77 Q351 -73 348 -66 Q343 -57 347 -47 Q360 -12 370 29 Q380 70 388 115 Q395 159 399 204 Q403 249 403 295 L403 690 Q403 736 434 765 Q448 779 468 788 Q487 796 509 796 L774 796 Q796 796 816 788 Q835 779 849 765 Q863 751 872 732 Q880 712 880 690 L880 32 Q880 13 887 2 Q893 -9 901 -15 Q903 -16 906 -17 L919 -23 Q919 -23 922 -23.5 Q925 -24 926 -25 L934 -26 L938 -26 Q947 -27 953 -33 Q960 -40 960 -50 Q960 -60 953 -67 Q947 -73 938 -74 Q936 -74 934 -74 L911 -70 Q894 -66 877 -55 Q860 -44 847 -23 Q833 -2 833 32 L833 690 Q833 714 815 732 Q798 749 774 749 L509 749 Q497 749 486 745 Q475 740 467 732 Q450 715 450 690 L450 295 Q450 247 446 200 Q442 153 434 107 Q419 14 391 -63 Z" /><glyph glyph-name="uni6B22" unicode="&#x6b22;" d="M704 249 Q700 257 704 266 Q707 275 716 279 Q724 283 733 280 Q742 276 746 267 Q782 188 829 115 Q875 43 934 -23 Q940 -31 940 -40 Q939 -48 934 -54 Q932 -56 930 -57 Q923 -62 915 -62 Q906 -61 899 -54 Q841 13 790 90 Q766 128 745 168 Q723 207 704 249 ZM489 494 Q488 484 481 478 Q474 472 464 473 Q454 474 448 482 Q442 489 443 498 Q448 547 462 580 Q476 612 492 642 L510 674 Q518 690 525 710 Q532 729 537 754 Q542 778 544 809 Q544 819 551 826 Q558 832 568 831 Q578 830 584 823 Q590 816 590 807 Q588 766 581 737 Q576 714 569 695 Q567 691 569.5 687 Q572 683 577 683 L842 683 Q842 683 844 683 Q846 683 846 683 L861 680 L865 679 Q886 673 897 657 Q909 640 910 619 Q910 619 910 617 Q910 615 910 615 L907 598 L906 594 L875 489 Q872 480 864 476 Q855 471 846 474 Q837 477 833 486 Q828 494 831 503 L862 608 L863 612 L864 614 Q864 617 863 620 L862 623 Q860 629 854 632 L853 633 Q851 634 845.5 635.5 Q840 637 839 637 L547 637 Q542 637 540 633 L538 628 L533 620 Q519 593 507 565 Q494 536 489 494 ZM663 527 Q663 537 670 544 Q677 550 686 550 Q696 550 703 544 Q709 537 709 527 L709 384 Q709 342 691 291 Q673 239 645 185 Q627 149 606 114 Q584 79 563 48 Q541 16 521 -10 Q501 -36 485 -54 Q478 -61 469 -62 Q461 -62 454 -57 Q452 -56 450 -54 Q445 -48 445 -40 Q444 -30 451 -23 Q466 -6 486 19 Q505 44 525 74 Q545 104 566 138 Q586 171 604 206 Q630 256 647 303 Q663 349 663 384 L663 527 ZM84 554 Q78 562 79 571 Q80 580 88 586 Q96 592 105 591 Q114 590 120 582 Q178 506 230 428 Q234 421 241 421 Q248 421 252 427 Q268 453 285 478 Q308 511 332 544 Q340 555 345 572 Q349 589 349 607 Q349 633 340 654 Q332 676 317 686 Q304 696 286 696 L106 696 Q96 696 90 703 Q83 709 83 719 Q83 729 90 736 Q96 742 106 742 L286 742 Q319 742 345 724 Q370 705 383 671 Q395 641 395 607 Q395 581 389 558 Q382 534 369 517 Q342 479 317 442 Q295 410 275 378 Q272 373 272.5 365.5 Q273 358 275 353 L283 341 L297 315 Q335 246 368 176 Q401 106 430 34 Q434 25 430 17 Q426 8 417 4 Q408 0 400 4 Q391 8 387 17 Q332 158 257 292 L245 313 Q243 316 240.5 315.5 Q238 315 236 312 Q227 297 218 280 Q184 217 154 153 Q124 88 97 17 Q93 8 85 4 Q77 1 69 3 L65 5 Q57 8 54 16 Q50 25 54 34 Q107 175 177 302 L195 334 L205 350 Q208 355 208.5 364.5 Q209 374 205 379 Q179 420 152 460 Q119 507 84 554 Z" /><glyph glyph-name="uni6BDB" unicode="&#x6bdb;" d="M82 219 Q73 219 66 226 Q59 233 59 243 Q59 252 66 259 Q73 266 82 266 L436 266 Q448 266 456.5 274.5 Q465 283 465 295 L465 442 Q465 454 456.5 462.5 Q448 471 436 471 L119 471 Q109 471 103 478 Q96 484 96 494 Q96 503 103 510 Q109 517 119 517 L436 517 Q448 517 456.5 525.5 Q465 534 465 546 L465 692 Q465 704 456.5 712.5 Q448 721 436 721 L131 721 Q121 721 115 728 Q108 734 108 744 Q108 753 115 760 Q121 767 131 767 L680 767 L722 769 Q742 770 761 775 Q781 780 800 787 Q818 794 837 805 Q845 810 854 807 Q863 804 868 796 Q873 787 870 778 Q867 769 859 764 Q817 741 772 730 Q727 721 680 721 L540 721 Q528 721 519.5 712.5 Q511 704 511 692 L511 546 Q511 534 519.5 525.5 Q528 517 540 517 L879 517 Q888 517 895 510 Q902 503 902 494 Q902 484 895 478 Q888 471 879 471 L540 471 Q528 471 519.5 462.5 Q511 454 511 442 L511 295 Q511 283 519.5 274.5 Q528 266 540 266 L916 266 Q925 266 932 259 Q939 252 939 243 Q939 233 932 226 Q925 219 916 219 L540 219 Q528 219 519.5 210.5 Q511 202 511 190 L511 43 Q511 20 527 6 Q543 -10 569 -10 L749 -10 L788 -11 L827 -14 L866 -20 L905 -28 Q914 -30 919 -38 Q923 -45 922 -54 Q922 -56 921 -58 Q918 -66 911 -70 Q903 -74 894 -72 Q858 -63 822 -60 L786 -57 L749 -56 L569 -56 Q525 -56 495 -28 Q481 -15 473 3 Q465 21 465 43 L465 190 Q465 202 456.5 210.5 Q448 219 436 219 L82 219 Z" /><glyph glyph-name="uni70B9" unicode="&#x70b9;" d="M831 556 Q831 566 838 573 Q845 580 855 580 Q865 580 872 573 Q878 566 878 556 L878 328 Q878 306 870 287 Q861 267 847 253 Q833 239 814 231 Q794 222 772 222 L230 222 Q208 222 189 231 Q169 239 155 253 Q141 267 133 287 Q124 306 124 328 L124 556 Q124 566 131 573 Q137 580 147 580 Q157 580 164 573 Q171 566 171 556 L171 545 Q171 533 183 533 L415 533 Q427 533 435.5 541.5 Q444 550 444 562 L444 819 Q444 829 451 836 Q458 843 468 843 Q478 843 485 836 Q491 829 491 819 L491 762 Q491 750 499.5 741.5 Q508 733 520 733 L911 733 Q921 733 928 726 Q935 719 935 709 Q935 699 928 692 Q921 685 911 685 L520 685 Q508 685 499.5 676.5 Q491 668 491 656 L491 562 Q491 550 499.5 541.5 Q508 533 520 533 L820 533 Q831 533 831 545 L831 556 ZM93 -55 Q86 -63 77 -64 Q68 -64 60 -57 Q52 -50 52 -41 Q52 -31 58 -24 L208 142 Q215 149 225 150 Q234 150 242 143 Q249 136 250 127 Q250 117 243 110 L93 -55 ZM922 -16 Q929 -23 929 -33 Q928 -42 921 -49 Q913 -56 904 -56 Q894 -55 887 -47 L777 75 L772 80 L767 84 Q747 102 728 102 Q709 102 688 84 L680 76 L596 -17 L589 -24 L584 -28 Q552 -59 513 -59 Q474 -59 442 -28 L431 -18 L429 -16 L316 109 Q309 117 310 127 Q310 135 316 140 L320 144 Q326 149 335 149 Q344 148 351 141 L465 15 L470 10 L473 8 L476 5 Q494 -12 513 -12 Q533 -12 553 7 L561 15 L645 107 L649 112 L656 119 Q690 149 728 149 Q766 149 799 119 L811 107 L922 -16 ZM802 485 L200 485 Q188 485 179.5 476.5 Q171 468 171 456 L171 328 Q171 316 176 305 Q180 294 188 286 Q196 278 207 274 Q218 269 230 269 L772 269 Q784 269 795 274 Q806 278 814 286 Q831 303 831 328 L831 456 Q831 468 822.5 476.5 Q814 485 802 485 Z" /><glyph glyph-name="uni73BB" unicode="&#x73bb;" d="M922 569 Q922 560 915 553 Q908 546 899 546 Q889 546 882 553 Q875 560 875 569 L875 610 Q875 635 860 652 Q846 668 825 668 L712 668 Q700 668 691.5 659.5 Q683 651 683 639 L683 487 Q683 475 691.5 466.5 Q700 458 712 458 L823 458 Q842 458 858 451 Q873 443 884 431 Q895 418 901 402 L903 398 Q909 384 909 365 Q909 346 902 328 Q894 309 878 295 Q845 265 811 239 L746 188 Q743 186 746 184 L754 176 Q814 122 864 68 Q914 13 945 -33 Q950 -41 948 -51 Q946 -60 938 -65 Q930 -70 921 -68 Q911 -66 906 -58 Q877 -15 829 38 Q781 90 723 142 L714 150 L710 154 Q705 158 699 153 Q643 110 591 63 Q535 12 486 -60 Q481 -68 472 -70 Q462 -72 454 -67 Q446 -61 445 -52 Q443 -43 448 -35 Q498 39 554 91 Q600 134 648 172 Q657 179 657 188 Q657 197 649 204 Q618 227 588 248 Q547 276 509 296 Q500 301 497 310 Q494 319 499 327 Q504 335 513 339 Q521 342 530 337 Q573 314 618 283 Q661 253 705 219 Q707 217 711 219 L713 221 L780 273 Q814 299 847 329 Q862 343 863 363 L863 367 L862 372 Q862 375 861 377 L860 381 Q859 384 858 387 L852 397 Q852 397 849.5 400 Q847 403 847 403 Q836 412 823 412 L470 412 Q458 412 449.5 403.5 Q441 395 441 383 L441 241 Q441 164 423 89 Q407 14 373 -56 Q373 -56 372 -58 Q367 -64 360 -68 Q351 -71 342 -66 Q334 -62 331 -53 Q327 -44 331 -36 Q363 30 378 99 Q395 172 395 241 L395 610 Q395 653 422 683 Q436 697 454 706 Q471 714 491 714 L608 714 Q620 714 628.5 722.5 Q637 731 637 743 L637 812 Q637 821 644 828 Q650 835 660 835 Q670 835 677 828 Q683 821 683 812 L683 743 Q683 731 691.5 722.5 Q700 714 712 714 L825 714 Q845 714 863 706 Q881 697 894 683 Q907 669 915 650 Q922 631 922 610 L922 569 ZM87 -33 Q81 -41 72 -42 Q63 -43 55 -37 Q47 -32 46 -23 Q45 -13 51 -5 Q75 27 105 41 Q128 52 151 58 Q156 60 161 66 Q166 72 166 78 L166 335 Q166 347 157.5 355.5 Q149 364 137 364 L74 364 Q65 364 58 371 Q51 378 51 388 Q51 397 58 404 Q65 411 74 411 L137 411 Q149 411 157.5 419.5 Q166 428 166 440 L166 670 Q166 682 157.5 690.5 Q149 699 137 699 L67 699 Q58 699 51 706 Q44 712 44 722 Q44 732 51 739 Q58 745 67 745 L311 745 Q321 745 328 739 Q334 732 334 722 Q334 712 328 706 Q321 699 311 699 L241 699 Q229 699 220.5 690.5 Q212 682 212 670 L212 440 Q212 428 220.5 419.5 Q229 411 241 411 L304 411 Q314 411 321 404 Q327 397 327 388 Q327 378 321 371 Q314 364 304 364 L241 364 Q229 364 220.5 355.5 Q212 347 212 335 L212 83 Q212 70 224 72 Q243 76 260 81 Q282 87 294 101 Q300 109 310 110 Q319 110 326 104 Q334 98 335 89 Q335 79 329 71 Q308 46 278 38 Q248 29 214 23 L180 17 Q162 14 146 8 Q129 2 114 -8 Q99 -18 87 -33 ZM608 668 L491 668 Q470 668 456 652 Q441 634 441 610 L441 487 Q441 475 449.5 466.5 Q458 458 470 458 L608 458 Q620 458 628.5 466.5 Q637 475 637 487 L637 639 Q637 651 628.5 659.5 Q620 668 608 668 Z" /><glyph glyph-name="uni7483" unicode="&#x7483;" d="M403 621 Q403 631 410 638 Q417 644 426 644 Q436 644 443 638 Q449 631 449 621 L449 483 Q449 471 454 461 Q458 450 466 442 Q484 426 507 426 L797 426 Q822 426 839 443 Q855 461 855 483 L855 621 Q855 631 862 638 Q868 644 878 644 Q888 644 895 638 Q901 631 901 621 L901 483 Q901 462 894 444 Q886 425 872 411 Q857 396 838 388 Q819 379 797 379 L663 379 Q655 379 647 373 Q639 367 636 360 L625 328 Q619 313 627.5 301 Q636 289 652 289 L824 289 Q846 289 865 281 Q884 272 899 258 Q913 243 921 225 Q928 206 928 185 L928 -49 Q928 -59 922 -66 Q915 -72 905 -72 Q895 -72 889 -66 Q882 -59 882 -49 L882 185 Q882 207 866 226 Q857 234 847 239 Q836 243 824 243 L616 243 Q607 243 599 237 Q591 231 588 224 L549 113 Q549 113 548.5 110 Q548 107 548 106 L547 104 Q547 103 548 99 Q549 95 549 94 Q549 93 551.5 89.5 Q554 86 555 85 L557 83 Q559 81 562 80 Q565 79 567 79 L724 79 Q727 79 730 79 L735 80 Q738 81 741 83 L745 87 Q747 89 748 92 L749 94 L750 97 L750 99 Q751 102 751 105 Q750 108 748 110 L720 150 Q715 158 717 167 Q718 176 726 182 Q734 187 743 186 Q752 185 758 177 L788 135 Q799 120 797 99 Q795 80 785 64 Q776 49 760 41 Q745 32 727 33 L570 33 Q553 33 540 39 Q538 40 536 41 L528 47 Q528 47 525.5 49.5 Q523 52 523 52 L516 60 Q514 62 513 65 L507 74 Q506 77 505 79 L502 89 Q501 92 501 94 Q499 111 505 125 L535 212 Q539 224 532.5 233.5 Q526 243 513 243 L480 243 Q468 243 458 239 Q447 234 439 226 Q431 218 427 208 Q422 197 422 185 L422 -49 Q422 -59 416 -66 Q409 -72 399 -72 Q390 -72 383 -66 Q376 -59 376 -49 L376 185 Q376 207 385 226 Q393 244 407 258 Q421 272 440 281 Q459 289 480 289 L542 289 Q550 289 558 295 Q566 301 569 308 L580 340 Q586 355 577.5 367 Q569 379 553 379 L507 379 Q486 379 467 388 Q448 396 434 410 Q420 424 412 443 Q403 462 403 483 L403 621 ZM81 -43 Q72 -48 63 -45 Q55 -41 51 -35 L49 -31 Q45 -24 48 -16 Q51 -7 60 -2 Q84 10 110 16 Q129 20 148 22 Q154 23 158 27.5 Q162 32 162 37 L162 320 Q162 332 153.5 340.5 Q145 349 133 349 L73 349 Q63 349 57 356 Q50 363 50 373 Q50 382 57 389 Q63 396 73 396 L133 396 Q145 396 153.5 404.5 Q162 413 162 425 L162 675 Q162 687 153.5 695.5 Q145 704 133 704 L64 704 Q55 704 48 711 Q41 717 41 727 Q41 737 48 744 Q55 750 64 750 L307 750 Q316 750 323 744 Q330 737 330 727 Q330 717 323 711 Q316 704 307 704 L238 704 Q226 704 217.5 695.5 Q209 687 209 675 L209 425 Q209 413 217.5 404.5 Q226 396 238 396 L298 396 Q308 396 315 389 Q322 382 322 373 Q322 363 315 356 Q308 349 298 349 L238 349 Q226 349 217.5 340.5 Q209 332 209 320 L209 43 Q209 29 223 30 Q243 32 262 37 Q287 42 308 55 Q316 60 326 58 Q335 55 340 47 Q345 39 343 30 Q340 20 332 15 Q300 -4 265 -10 Q230 -16 194 -19 L135 -26 Q106 -30 81 -43 ZM809 504 Q817 498 818 489 Q819 479 814 471 Q808 463 799 462 Q789 461 781 467 Q753 488 725 506 Q703 520 679 533 Q675 535 667 536 Q659 537 654 535 L637 528 L578 500 Q548 486 523 467 Q515 461 506 462 Q497 463 491 471 Q485 479 486 489 Q487 498 495 504 Q522 524 552 539 L590 556 Q597 560 597 567 Q597 574 590 578 L567 588 L517 609 Q508 613 504 622 Q501 629 503 637 L505 641 Q508 649 516 652 Q525 656 534 652 Q571 637 604 623 Q631 611 656 598 Q660 596 668 596 Q676 596 680 598 Q700 609 719 621 Q743 636 762 658 Q769 665 778 666 Q787 666 795 659 Q802 653 803 644 Q803 634 797 627 Q779 607 759 592 Q744 581 729 572 Q725 570 725 565 Q725 560 729 558 Q769 533 809 504 ZM629 781 L629 811 Q629 821 636 828 Q642 835 652 835 Q662 835 669 828 Q675 821 675 811 L675 781 Q675 769 683.5 760.5 Q692 752 704 752 L930 752 Q940 752 947 746 Q953 739 953 729 Q953 719 947 713 Q940 706 930 706 L375 706 Q365 706 359 713 Q352 719 352 729 Q352 739 359 746 Q365 752 375 752 L600 752 Q612 752 620.5 760.5 Q629 769 629 781 Z" /><glyph glyph-name="uni754C" unicode="&#x754c;" d="M932 202 Q941 198 945 189 Q948 180 944 171 Q940 163 932 159 Q923 155 914 159 Q863 180 815 206 Q767 232 719 262 Q671 292 626 326 Q585 357 544 390 Q542 392 534.5 395 Q527 398 524 398 L476 398 Q473 398 466 395.5 Q459 393 457 391 Q422 359 384 329 Q342 296 295 267 Q247 236 195 209 Q143 182 85 159 Q76 155 67 159 Q59 162 56 170 L54 174 Q52 182 55 190 Q59 198 67 202 Q124 225 174 251 Q224 276 270 306 Q304 327 335 350 Q358 367 381 386 Q385 389 383 393.5 Q381 398 376 398 L256 398 Q235 398 216 407 Q197 415 183 429 Q169 443 161 462 Q152 481 152 502 L152 793 Q152 803 159 810 Q166 816 175 816 Q185 816 192 810 Q198 803 198 793 L198 787 Q198 781 204 781 L794 781 Q800 781 800 787 L800 793 Q800 803 807 810 Q814 816 824 816 Q833 816 840 810 Q847 803 847 793 L847 502 Q847 481 839 462 Q830 443 816 429 Q802 415 783 407 Q764 398 743 398 L650 398 Q639 398 635.5 388.5 Q632 379 641 372 Q692 334 744 301 Q835 243 932 202 ZM717 -50 Q717 -60 710 -67 Q703 -74 693 -74 Q684 -74 677 -67 Q670 -60 670 -50 L670 224 Q670 233 677 240 Q684 247 693 247 Q703 247 710 240 Q717 233 717 224 L717 -50 ZM286 224 Q286 233 293 240 Q299 247 309 247 Q318 247 325 240 Q332 233 332 224 L332 151 Q332 106 317 74 Q301 42 277 18 Q252 -7 221 -26 Q189 -44 154 -62 Q144 -68 135 -65 Q126 -62 121 -53 Q116 -45 119 -36 Q122 -27 133 -21 L190 11 Q217 26 239 46 Q260 66 273 92 Q286 117 286 151 L286 224 ZM476 474 L476 541 Q476 553 467.5 561.5 Q459 570 447 570 L227 570 Q215 570 206.5 561.5 Q198 553 198 541 L198 502 Q198 479 215 462 Q232 445 256 445 L447 445 Q459 445 467.5 453.5 Q476 462 476 474 ZM476 645 L476 706 Q476 718 467.5 726.5 Q459 735 447 735 L227 735 Q215 735 206.5 726.5 Q198 718 198 706 L198 645 Q198 633 206.5 624.5 Q215 616 227 616 L447 616 Q459 616 467.5 624.5 Q476 633 476 645 ZM523 706 L523 645 Q523 633 531.5 624.5 Q540 616 552 616 L731 616 Q741 616 748 610 Q754 603 754 593 Q754 583 748 577 Q741 570 731 570 L552 570 Q540 570 531.5 561.5 Q523 553 523 541 L523 474 Q523 462 531.5 453.5 Q540 445 552 445 L743 445 Q768 445 784 462 Q800 478 800 502 L800 706 Q800 718 791.5 726.5 Q783 735 771 735 L552 735 Q540 735 531.5 726.5 Q523 718 523 706 Z" /><glyph glyph-name="uni767E" unicode="&#x767e;" d="M214 557 L429 557 Q432 557 432 560 Q432 563 433 566 L473 708 Q477 723 468.5 734 Q460 745 445 745 L75 745 Q65 745 59 752 Q52 758 52 768 Q52 778 59 785 Q65 791 75 791 L924 791 Q934 791 941 785 Q948 778 948 768 Q948 758 941 752 Q934 745 924 745 L553 745 Q544 745 535.5 738.5 Q527 732 525 724 L489 594 Q485 579 493.5 568 Q502 557 517 557 L785 557 Q793 557 799 563 Q805 569 805 577 L805 597 Q805 607 812 614 Q818 621 828 621 Q838 621 845 614 Q851 607 851 597 L851 44 Q851 22 843 3 Q835 -16 821 -30 Q807 -44 788 -53 Q769 -61 747 -61 L252 -61 Q231 -61 212 -53 Q193 -44 179 -30 Q165 -16 157 3 Q148 22 148 44 L148 597 Q148 607 155 614 Q161 621 171 621 Q181 621 188 614 Q194 607 194 597 L194 577 Q194 569 200 563 Q206 557 214 557 ZM223 292 L735 292 Q745 292 752 286 Q758 279 758 269 Q758 260 752 253 Q745 246 735 246 L223 246 Q211 246 202.5 237.5 Q194 229 194 217 L194 44 Q194 32 199 22 Q203 11 211 3 Q228 -14 252 -14 L747 -14 Q771 -14 788 3 Q805 20 805 44 L805 482 Q805 494 796.5 502.5 Q788 511 776 511 L223 511 Q211 511 202.5 502.5 Q194 494 194 482 L194 321 Q194 309 202.5 300.5 Q211 292 223 292 Z" /><glyph glyph-name="uni7684" unicode="&#x7684;" d="M736 238 Q742 233 746 225 Q749 217 745 210 L743 206 Q739 199 731 196 Q722 193 713 197 Q649 228 601 278 Q577 303 557 333 Q538 362 521 399 L519 403 Q515 410 519 418 Q522 427 531 431 Q540 435 549 432 Q556 428 561 422 Q561 422 562 419.5 Q563 417 563 417 Q592 353 634 310 Q676 268 734 239 Q734 239 735 238.5 Q736 238 736 238 ZM516 508 Q515 499 508 493 Q501 488 492 488 Q490 488 488 489 Q480 491 475 497 Q469 504 470 514 Q475 561 491 592 Q507 623 525 652 L542 680 Q556 705 567 736 Q578 766 581 811 Q581 821 588 828 Q595 834 605 833 Q615 832 622 825 Q628 818 627 808 Q624 770 617 742 Q612 721 604 703 Q602 699 604.5 695 Q607 691 612 691 L819 691 Q841 691 860 683 Q879 674 893 660 Q907 646 915 627 Q923 608 923 587 L923 57 Q923 37 916 20 Q909 2 897 -12 Q885 -26 869 -35 Q852 -44 832 -46 Q807 -49 784 -49 L781 -49 L727 -54 Q699 -57 667 -70 Q658 -74 649 -70 Q640 -66 636 -57 Q633 -49 637 -40 Q640 -31 649 -27 Q687 -12 718 -9 Q749 -5 780 -3 Q801 -3 827 0 Q848 2 863 18 Q877 35 877 57 L877 587 Q877 599 873 610 Q868 620 860 628 Q852 636 842 641 Q831 645 819 645 L579 645 Q574 645 572 641 L569 636 L564 628 Q548 602 535 576 Q521 549 516 508 ZM218 697 L218 810 Q218 820 225 827 Q231 833 241 833 Q251 833 258 827 Q264 820 264 810 L264 697 Q264 685 272.5 676.5 Q281 668 293 668 L383 668 Q391 668 391 677 L391 685 Q391 695 398 702 Q405 709 415 709 Q424 709 431 702 Q438 695 438 685 L438 53 Q438 31 430 12 Q421 -7 407 -21 Q393 -35 374 -44 Q355 -52 334 -52 L176 -52 Q155 -52 136 -44 Q117 -35 103 -21 Q89 -7 81 12 Q72 31 72 53 L72 685 Q72 695 79 702 Q86 709 95 709 Q105 709 112 702 Q119 695 119 685 L119 677 Q119 668 128 668 L189 668 Q201 668 209.5 676.5 Q218 685 218 697 ZM148 337 L322 337 Q332 337 339 331 Q345 324 345 314 Q345 304 339 298 Q332 291 322 291 L148 291 Q136 291 127.5 282.5 Q119 274 119 262 L119 53 Q119 28 134 13 L138 10 Q152 -5 176 -5 L334 -5 Q358 -5 372 10 L376 13 Q391 28 391 53 L391 593 Q391 605 382.5 613.5 Q374 622 362 622 L148 622 Q136 622 127.5 613.5 Q119 605 119 593 L119 366 Q119 354 127.5 345.5 Q136 337 148 337 Z" /><glyph glyph-name="uni7AD9" unicode="&#x7ad9;" d="M871 391 Q871 401 878 408 Q885 414 894 414 Q904 414 911 408 Q918 401 918 391 L918 49 Q918 27 910 8 Q901 -11 887 -25 Q873 -39 854 -47 Q835 -55 813 -55 L581 -55 Q559 -55 540 -47 Q521 -39 507 -25 Q477 5 477 49 L477 391 Q477 401 484 408 Q490 414 500 414 Q510 414 517 408 Q523 401 523 391 L523 385 Q523 379 529 379 L616 379 Q628 379 636.5 387.5 Q645 396 645 408 L645 811 Q645 821 652 828 Q659 835 669 835 Q678 835 685 828 Q692 821 692 811 L692 696 Q692 684 700.5 675.5 Q709 667 721 667 L931 667 Q940 667 947 661 Q954 654 954 644 Q954 634 947 628 Q940 621 931 621 L721 621 Q709 621 700.5 612.5 Q692 604 692 592 L692 408 Q692 396 700.5 387.5 Q709 379 721 379 L865 379 Q871 379 871 385 L871 391 ZM138 75 Q128 119 121 164 Q112 217 107 272 Q102 332 99 394 Q96 455 96 521 Q96 531 103 538 Q109 544 119 544 Q129 544 136 538 Q142 531 142 521 Q143 456 146 396 Q148 335 153 277 Q158 221 167 168 Q175 120 186 73 Q188 62 199 62 L210 62 Q231 62 252 65 Q258 65 263 70 Q268 75 269 81 Q280 130 289 179 Q298 234 304 291 Q316 404 313 521 Q312 530 319 537 Q324 543 333 544 L337 544 Q346 544 352 539 Q358 532 359 522 Q362 402 350 286 Q345 232 336 180 Q328 133 317 86 Q316 82 319 80 Q322 78 326 79 L336 83 L338 84 L359 93 L362 95 Q369 99 377 97 Q386 94 391 86 Q396 78 393 69 Q390 59 382 54 Q358 40 336 33 Q313 25 292 22 Q271 18 251 17 L210 16 Q181 16 152 14 Q123 11 91 0 Q82 -3 74 1 Q66 4 63 12 L61 16 Q59 24 63 32 Q67 40 76 44 Q93 50 110 54 L126 56 Q132 57 136 62.5 Q140 68 138 75 ZM204 716 L204 815 Q204 824 211 831 Q217 838 227 838 Q237 838 244 831 Q250 824 250 815 L250 716 Q250 704 258.5 695.5 Q267 687 279 687 L371 687 Q381 687 388 681 Q394 674 394 664 Q394 654 388 648 Q381 641 371 641 L83 641 Q74 641 67 648 Q60 654 60 664 Q60 674 67 681 Q74 687 83 687 L175 687 Q187 687 195.5 695.5 Q204 704 204 716 ZM842 333 L552 333 Q540 333 531.5 324.5 Q523 316 523 304 L523 49 Q523 25 540 8 Q557 -9 581 -9 L813 -9 Q825 -9 836 -5 Q846 0 854 8 Q871 25 871 49 L871 304 Q871 316 862.5 324.5 Q854 333 842 333 Z" /><glyph glyph-name="uni7EDC" unicode="&#x7edc;" d="M827 281 Q827 291 834 298 Q840 304 850 304 Q860 304 867 298 Q873 291 873 281 L873 43 Q873 0 846 -30 Q833 -44 816 -53 Q798 -61 778 -61 L522 -61 Q502 -61 485 -53 Q467 -44 454 -30 Q427 0 427 43 L427 281 Q427 291 434 298 Q440 304 450 304 Q460 304 467 298 Q473 291 473 281 L473 276 Q473 270 479 270 L822 270 Q827 270 827 276 L827 281 ZM114 -61 Q109 -69 100 -71 Q90 -73 82 -68 Q74 -63 72 -54 Q70 -44 75 -36 Q102 4 144 21 Q185 38 228 49 Q258 57 285 66 Q311 75 324 92 Q330 100 340 101 Q349 102 357 97 Q365 91 366 82 Q367 72 361 64 Q341 38 309 26 Q276 14 240 4 Q203 -5 169 -19 Q134 -32 114 -61 ZM285 585 Q287 594 295 600 Q302 605 312 603 Q321 601 327 593 Q332 585 330 576 Q321 534 303 496 Q284 458 258 422 L250 412 L241 400 L233 390 Q211 364 187 340 L136 288 L132 284 Q122 273 119 261 Q115 249 117 238 Q120 212 141 191 L149 183 L154 179 L157 177 L164 173 Q181 164 199 163 Q217 161 234 165 Q252 169 267 178 Q281 186 291 196 Q293 198 295 200 L300 208 Q300 209 301 210.5 Q302 212 302 212 Q306 220 306 227 Q307 229 306 231 L305 245 Q305 248 304 250 Q301 262 294 272 L292 275 L278 290 L275 294 Q269 300 269 308 Q268 317 275 325 Q281 332 291 333 Q300 333 307 327 Q318 317 331 300 Q344 283 350 260 Q355 243 354 225 Q352 207 342 188 Q336 177 328 169 L326 166 Q312 150 292 139 Q270 126 245 120 Q219 114 193 117 Q167 119 142 133 Q131 138 117 150 L108 159 Q94 174 84 193 Q74 212 72 232 Q69 253 75 274 Q80 294 95 313 Q96 313 97 314.5 Q98 316 99 316 L101 319 L105 322 L144 361 Q158 375 171 389 Q174 393 172.5 396.5 Q171 400 167 402 L141 410 Q117 417 100 433 Q81 449 73 473 Q67 497 74 519 Q78 534 91 550 Q149 615 179 676 Q210 738 225 811 Q227 820 235 826 Q243 831 252 829 Q262 827 267 819 Q272 811 270 802 Q254 723 220 655 Q203 621 180 588 Q157 554 126 519 Q121 514 119 509 L117 503 Q116 497 117 489 Q117 486 118 484 Q121 475 130 468 Q142 458 155 454 L207 437 Q211 436 214 440 L216 443 L221 450 Q244 482 261 515 Q277 548 285 585 ZM412 573 Q410 564 403 558 Q395 552 386 554 Q376 556 370 564 Q364 571 366 580 Q372 618 388 643 Q403 667 422 690 Q440 712 456 738 Q472 764 476 807 Q477 817 484 824 Q490 829 499 829 Q501 829 503 828 Q511 826 517 820 Q523 813 522 804 Q519 773 511 749 Q509 743 512 738 Q515 733 521 733 L793 733 Q813 733 828 723 Q843 713 854 697 Q863 681 868 659 Q868 659 868.5 657 Q869 655 869 655 L870 639 Q870 636 870 632 L867 616 Q867 616 866.5 614 Q866 612 866 612 Q861 596 851 584 Q840 570 820 564 Q786 553 754 540 Q726 529 700 517 Q696 515 695.5 511.5 Q695 508 699 507 L708 501 L727 490 Q781 456 833 418 Q885 379 937 334 Q945 328 946 319 Q946 310 941 303 Q940 301 938 299 Q932 294 924 294 Q915 293 907 299 Q806 387 703 450 L672 469 L653 479 Q648 481 639 481 Q630 481 625 478 L597 462 Q545 430 498 392 Q450 353 405 306 Q398 299 389 299 Q381 299 374 304 Q372 305 370 307 Q365 313 365 322 Q365 331 372 338 Q462 434 573 501 L579 505 L583 507 L586 509 Q590 511 586 513 Q560 526 533 538 Q504 550 472 561 Q463 564 459 573 Q456 581 458 589 L460 593 Q463 601 471 604 Q479 608 488 604 Q559 578 625 545 Q629 543 638 542.5 Q647 542 651 544 Q723 581 802 606 Q802 606 805.5 607.5 Q809 609 810 609 L812 611 Q813 612 816 615.5 Q819 619 820 620 L822 623 Q823 626 824 628 Q825 637 824 647 L823 651 Q821 663 815 672 Q805 687 793 687 L486 687 Q478 687 473 680 L468 674 L458 661 Q442 642 430 622 Q417 602 412 573 ZM798 223 L502 223 Q490 223 481.5 214.5 Q473 206 473 194 L473 43 Q473 19 489 1 Q502 -15 522 -15 L778 -15 Q798 -15 812 1 Q827 19 827 43 L827 194 Q827 206 818.5 214.5 Q810 223 798 223 Z" /><glyph glyph-name="uni7F51" unicode="&#x7f51;" d="M559 120 Q556 111 548 107 Q539 102 530 105 Q521 108 517 117 Q513 126 516 135 Q539 200 568 248 Q597 295 628 340 L644 363 L651 374 Q654 379 654.5 386 Q655 393 653 398 Q631 440 604 483 Q573 532 531 583 Q525 591 526 600 Q527 609 535 615 Q543 621 552 621 Q561 620 567 612 Q605 565 635 521 Q658 486 678 450 Q681 444 687 444 Q693 444 697 450 Q711 477 722 508 Q736 549 744 601 Q745 610 753 616 Q760 622 770 620 Q779 619 785 612 Q791 604 789 594 Q780 526 759 476 Q739 427 714 383 Q713 381 715 377 L716 374 Q743 315 763 256 Q783 197 800 133 Q803 124 798 116 Q794 108 786 106 L782 104 Q774 103 767 107 Q758 112 756 121 Q740 178 723 232 Q706 281 685 329 Q684 332 681.5 332.5 Q679 333 678 331 L666 313 Q637 271 609 226 Q580 180 559 120 ZM482 133 Q484 124 480 116 Q476 108 468 106 L464 104 Q456 103 449 107 Q440 112 438 121 Q421 178 404 232 Q388 281 367 329 Q366 332 363.5 332.5 Q361 333 360 331 L356 325 L347 313 Q318 271 290 226 Q262 180 241 120 Q238 111 230 107 Q221 102 212 105 Q203 108 199 117 Q195 125 197 133 L199 138 Q221 201 250 248 Q279 295 309 340 L325 363 L333 374 Q336 379 336.5 386 Q337 393 335 398 Q313 440 286 483 Q255 532 213 583 Q207 591 208 600 Q208 609 216 615 Q224 621 234 621 Q243 620 249 612 Q287 565 316 521 Q339 486 359 450 Q363 444 369 443.5 Q375 443 379 450 Q393 477 404 508 Q418 549 425 601 Q427 610 435 616 Q441 621 449 620 L453 620 Q462 618 467 612 Q473 604 471 594 Q462 526 441 476 Q421 429 397 387 Q394 383 396 379 L398 374 Q425 315 445 256 Q465 197 482 133 ZM152 -50 Q152 -60 146 -67 Q139 -74 129 -74 Q119 -74 113 -67 Q106 -60 106 -50 L106 681 Q106 703 114 722 Q122 740 136 755 Q150 769 169 777 Q188 785 210 785 L787 785 Q809 785 828 777 Q847 769 862 754 Q876 739 884 721 Q891 702 891 681 L891 59 Q891 22 867 -5 Q843 -32 804 -38 L773 -42 L751 -46 L729 -52 Q706 -58 687 -70 Q679 -75 670 -73 Q661 -70 656 -62 Q651 -54 653 -45 Q655 -35 663 -30 Q685 -18 715 -8 L740 -1 L742 0 L766 4 L797 8 Q819 11 833 26 Q845 38 845 59 L845 681 Q845 703 829 722 Q811 739 787 739 L210 739 Q198 739 188 735 Q177 730 169 722 Q161 714 157 704 Q152 693 152 681 L152 -50 Z" /><glyph glyph-name="uni8FD0" unicode="&#x8fd0;" d="M547 481 L408 214 Q403 206 403 197 Q403 190 406 184 Q406 184 408.5 181 Q411 178 411 178 Q416 173 422 169 Q424 168 427 167 L435 165 Q436 165 439 164.5 Q442 164 443 164 L801 164 Q802 164 805 164 Q808 164 809 165 Q809 165 812 166 Q815 167 816 167 L821 170 L824 172 Q831 175 835 182 Q836 184 837 187 L839 192 Q839 193 839 199 Q839 205 839 207 L837 210 Q837 211 835.5 214 Q834 217 834 217 L749 344 Q744 352 746 362 Q748 371 756 376 Q764 381 773 380 Q782 378 788 370 L873 240 L876 237 Q882 229 884 221 Q884 221 884.5 219 Q885 217 885 217 L887 201 Q887 201 887 199 Q887 197 887 196 Q886 174 875 159 L865 147 Q863 144 860 142 L849 133 L846 131 Q824 117 805 117 L439 117 Q423 117 403 127 Q385 137 372 153 Q357 173 357 197 Q357 216 367 236 L481 455 Q489 470 481 483.5 Q473 497 455 497 L337 497 Q327 497 320 504 Q313 511 313 520 Q313 530 320 537 Q327 543 337 543 L911 543 Q921 543 928 537 Q934 530 934 520 Q934 511 928 504 Q921 497 911 497 L573 497 Q566 497 558 492 Q550 487 547 481 ZM276 50 Q298 28 324 16 Q349 5 378 5 L801 5 L840 4 Q859 2 879 -2 L912 -12 Q927 -17 941 -25 Q949 -30 952 -40 Q954 -49 949 -57 Q944 -65 935 -68 Q926 -70 918 -65 Q898 -53 869 -47 Q836 -41 801 -41 L378 -41 Q339 -41 305 -26 Q288 -18 273 -8 Q258 3 244 17 L205 56 Q199 62 195 55 L192 49 L191 46 L183 35 Q160 -3 130 -29 Q100 -55 82 -66 Q74 -71 65 -70 Q55 -68 50 -60 Q45 -52 47 -43 Q49 -33 57 -28 Q73 -17 99 6 Q124 28 145 60 Q158 80 166 103 Q174 125 174 150 L174 459 Q174 483 159 497 L156 501 Q141 516 116 516 L68 516 Q59 516 52 523 Q45 530 45 540 Q45 549 52 556 Q59 563 68 563 L116 563 Q138 563 157 555 Q176 546 190 532 Q220 502 220 459 L220 150 Q220 132 218 118 Q217 115 218.5 110.5 Q220 106 222 104 L276 50 ZM81 735 Q72 738 68 747 Q65 755 66 763 Q67 765 68 767 Q72 775 80 778 Q88 782 97 779 L245 727 Q254 723 258 715 Q262 706 259 697 Q256 688 247 684 Q238 680 229 683 L81 735 ZM421 731 Q412 731 405 738 Q398 745 398 755 Q398 764 405 771 Q412 778 421 778 L825 778 Q834 778 841 771 Q848 764 848 755 Q848 745 841 738 Q834 731 825 731 L421 731 Z" /><glyph glyph-name="uniFF1A" unicode="&#xff1a;" d="M231 88 Q248 88 261 76 Q274 63 274 45 Q274 27 261 15 Q248 2 231 2 Q213 2 200 15 Q187 27 187 45 Q187 63 200 76 Q213 88 231 88 ZM228 481 Q246 481 259 469 Q271 456 271 438 Q271 420 259 407 Q246 394 228 394 Q210 394 198 407 Q185 420 185 438 Q185 456 198 469 Q210 481 228 481 Z" /><glyph glyph-name="uniFF1F" unicode="&#xff1f;" d="M274 594 Q269 586 260 583 Q251 580 243 585 Q234 590 231 599 Q228 608 233 616 Q253 652 291 674 Q328 696 371 703 Q420 709 461 699 Q484 694 504 684 Q523 673 538 656 Q558 636 568 607 Q577 577 572 539 Q569 512 561 492 Q553 471 543 455 Q532 439 519 426 L491 400 L460 370 Q444 354 431 332 Q417 310 407 280 Q397 250 392 207 Q391 197 384 191 Q377 186 368 186 Q366 186 364 187 Q356 189 351 195 Q345 202 346 212 Q352 261 364 296 Q375 331 391 356 Q406 381 424 400 L459 434 Q483 456 502 480 Q521 503 526 545 Q530 571 524 591 Q518 611 505 625 Q484 646 450 654 Q416 663 378 657 Q345 652 317 636 Q288 620 274 594 ZM369 111 Q387 111 400 98 Q412 85 412 67 Q412 50 400 37 Q387 24 369 24 Q351 24 339 37 Q326 50 326 67 Q326 85 339 98 Q351 111 369 111 Z" /></font>
</defs>
</svg>
